<?xml version="1.0" standalone="no"?>
<!DOCTYPE svg PUBLIC "-//W3C//DTD SVG 20010904//EN"
 "http://www.w3.org/TR/2001/REC-SVG-20010904/DTD/svg10.dtd">
<svg version="1.0" xmlns="http://www.w3.org/2000/svg"
 width="1472.000000pt" height="832.000000pt" viewBox="0 0 1472.000000 832.000000"
 preserveAspectRatio="xMidYMid meet">

<g transform="translate(0.000000,832.000000) scale(0.100000,-0.100000)"
fill="#000000" stroke="none">
<path d="M6268 5830 c-180 -22 -332 -112 -396 -235 -24 -45 -27 -61 -27 -155
0 -129 19 -175 110 -266 96 -97 185 -131 447 -172 174 -27 289 -137 288 -276
-1 -90 -71 -176 -176 -216 -198 -74 -451 1 -536 159 -23 43 -79 66 -121 51
-74 -25 -85 -73 -38 -156 61 -106 211 -208 361 -245 79 -20 269 -17 349 5 145
39 252 118 312 229 33 61 34 65 34 182 0 111 -2 125 -29 183 -20 43 -47 80
-87 116 -90 84 -192 125 -364 146 -251 31 -359 108 -359 255 0 74 20 115 76
155 62 45 137 64 248 63 153 -1 209 -30 336 -176 35 -41 45 -47 80 -47 52 0
84 31 84 82 0 66 -92 182 -200 250 -92 58 -248 86 -392 68z"/>
<path d="M12799 5805 c-14 -8 -31 -27 -38 -42 -8 -21 -11 -211 -9 -711 l3
-684 28 -24 c55 -47 138 -24 157 45 6 20 10 162 10 329 0 223 3 300 13 325 23
54 68 99 132 128 50 24 73 29 137 29 100 0 170 -25 225 -82 75 -78 76 -84 83
-436 l5 -314 28 -24 c42 -36 110 -29 144 15 20 26 18 609 -2 686 -48 183 -181
301 -371 328 -124 18 -264 -17 -358 -88 l-35 -26 -3 248 c-3 265 -6 280 -55
302 -32 15 -62 13 -94 -4z"/>
<path d="M11179 5773 c-89 -55 -72 -187 28 -222 35 -13 46 -13 79 0 131 50 97
240 -43 239 -21 0 -50 -8 -64 -17z"/>
<path d="M7600 5369 c-177 -31 -342 -177 -402 -358 -22 -64 -22 -82 -26 -558
-3 -436 -1 -496 13 -526 25 -53 79 -71 134 -43 48 25 51 46 51 332 l0 266 53
-48 c185 -168 474 -159 653 20 232 233 195 654 -72 831 -111 74 -272 107 -404
84z m236 -194 c71 -31 130 -88 167 -159 30 -58 32 -67 32 -171 0 -102 -2 -114
-29 -168 -104 -205 -366 -255 -535 -102 -116 105 -144 307 -63 458 80 150 269
213 428 142z"/>
<path d="M8908 5370 c-210 -36 -370 -182 -423 -387 -19 -74 -19 -209 1 -286
97 -375 520 -507 804 -250 l40 35 0 -52 c0 -44 4 -56 29 -81 39 -38 87 -39
130 -3 l31 26 0 282 c0 231 -3 292 -16 337 -79 265 -328 424 -596 379z m147
-171 c147 -27 246 -131 275 -288 40 -224 -115 -423 -330 -424 -102 0 -164 25
-236 97 -79 79 -106 147 -106 261 0 105 27 176 93 249 53 58 110 91 180 105
61 12 59 12 124 0z"/>
<path d="M10242 5369 c-54 -10 -145 -51 -188 -84 -41 -31 -44 -31 -44 1 0 39
-50 84 -95 84 -27 0 -44 -8 -66 -29 l-29 -29 0 -467 0 -467 29 -29 c22 -21 39
-29 66 -29 27 0 44 8 66 29 l29 29 0 297 c0 194 4 312 12 343 16 63 93 142
162 165 63 21 178 22 239 1 64 -22 129 -82 158 -146 23 -51 24 -64 29 -361 l5
-309 28 -24 c40 -34 90 -32 128 5 l29 29 0 297 c0 335 -8 394 -66 492 -95 161
-291 242 -492 202z"/>
<path d="M11983 5369 c-82 -14 -157 -47 -207 -91 -66 -57 -90 -108 -90 -188 0
-154 108 -245 363 -304 196 -46 261 -87 261 -166 0 -82 -80 -132 -215 -132
-108 -1 -177 21 -260 82 -73 54 -90 58 -135 35 -98 -50 -72 -144 57 -213 197
-104 479 -103 625 4 143 104 159 312 33 423 -55 48 -125 76 -286 116 -208 51
-259 82 -259 161 0 70 118 124 242 110 79 -9 113 -22 187 -73 75 -51 118 -56
156 -18 30 29 32 59 5 102 -41 68 -147 126 -270 149 -84 15 -131 16 -207 3z"/>
<path d="M11179 5341 l-29 -29 0 -466 0 -465 23 -26 c15 -18 36 -28 64 -32 37
-5 45 -2 73 25 l30 30 0 467 0 467 -29 29 c-22 21 -39 29 -66 29 -27 0 -44 -8
-66 -29z"/>
<path d="M9898 3911 c-75 -24 -119 -53 -168 -108 -97 -111 -93 -273 11 -387
69 -75 144 -111 300 -142 148 -29 220 -62 265 -121 86 -113 52 -284 -70 -343
-162 -78 -379 -33 -480 99 -43 58 -60 67 -102 57 -85 -22 17 -185 159 -254 81
-39 148 -54 246 -54 189 -1 326 73 389 211 22 47 26 70 26 146 1 79 -3 98 -27
147 -33 68 -100 131 -174 165 -30 14 -107 36 -171 49 -149 30 -199 47 -246 86
-98 80 -98 215 -1 295 49 41 112 58 210 57 109 0 165 -26 244 -110 36 -39 67
-64 80 -64 21 0 61 32 61 49 0 70 -134 191 -250 225 -74 22 -228 20 -302 -3z"/>
<path d="M8130 3900 c-20 -20 -20 -33 -20 -605 0 -572 0 -585 20 -605 25 -25
62 -26 83 -2 15 16 17 50 17 265 0 288 6 329 60 390 128 145 394 119 479 -48
26 -49 26 -54 31 -323 5 -256 6 -275 24 -288 26 -19 49 -18 75 4 22 17 22 20
19 297 -3 265 -4 283 -26 337 -32 80 -99 150 -180 190 -64 32 -72 33 -182 33
-129 0 -165 -11 -252 -78 l-48 -37 0 229 c0 208 -2 229 -18 244 -25 23 -58 21
-82 -3z"/>
<path d="M12470 3911 c-142 -28 -234 -146 -249 -321 l-6 -75 -65 -3 c-73 -3
-90 -13 -90 -52 0 -39 17 -49 90 -52 l65 -3 3 -349 c2 -308 4 -352 19 -368 21
-24 58 -23 83 2 19 19 20 33 20 370 l0 350 110 0 c106 0 110 1 126 25 15 23
15 27 0 50 -16 24 -20 25 -126 25 l-110 0 0 48 c0 145 88 252 208 252 39 0 62
18 62 49 0 54 -45 70 -140 52z"/>
<path d="M7075 3882 c-37 -7 -65 -43 -65 -81 1 -85 98 -120 150 -54 50 64 -4
151 -85 135z"/>
<path d="M11730 3860 c-27 -27 -27 -93 0 -120 27 -27 64 -34 97 -18 55 26 67
110 20 143 -31 22 -93 19 -117 -5z"/>
<path d="M7536 3804 c-13 -12 -16 -41 -16 -155 l0 -139 -68 0 c-75 0 -92 -10
-92 -51 0 -38 17 -48 90 -51 l65 -3 5 -260 c5 -245 6 -263 28 -306 49 -99 136
-158 249 -167 77 -6 113 12 113 58 0 40 -24 60 -73 60 -93 0 -149 35 -181 112
-13 30 -16 83 -16 273 l0 235 105 0 c100 0 105 1 121 25 15 23 15 27 0 50 -16
24 -21 25 -121 25 l-105 0 0 138 c0 122 -2 141 -18 155 -23 21 -66 22 -86 1z"/>
<path d="M10975 3537 c-189 -63 -295 -220 -295 -435 1 -312 289 -514 587 -411
77 26 142 66 155 93 21 47 -29 90 -76 64 -13 -7 -41 -23 -62 -34 -129 -70
-300 -48 -399 52 -45 46 -85 126 -85 172 l0 32 333 0 c402 0 378 -8 359 122
-15 103 -48 174 -112 242 -74 78 -148 109 -270 113 -60 2 -110 -2 -135 -10z
m228 -113 c83 -28 158 -121 173 -213 l7 -41 -292 0 c-329 0 -305 -8 -270 87
27 70 97 144 160 166 58 20 164 21 222 1z"/>
<path d="M5717 3533 c-18 -18 3 -98 119 -448 84 -253 133 -386 146 -397 26
-23 53 -23 76 0 10 10 58 152 111 330 52 171 97 312 101 312 3 0 48 -141 99
-312 94 -317 108 -348 152 -348 10 0 27 8 38 19 21 21 271 761 271 802 0 14
-5 30 -12 37 -18 18 -63 15 -80 -5 -9 -10 -60 -153 -113 -318 -53 -165 -100
-304 -104 -308 -4 -4 -44 117 -89 270 -110 370 -108 367 -154 371 -29 3 -40
-2 -52 -20 -8 -13 -56 -160 -106 -328 -51 -168 -94 -307 -95 -308 -2 -2 -49
135 -105 305 -56 169 -108 318 -116 331 -10 15 -24 22 -48 22 -18 0 -36 -3
-39 -7z"/>
<path d="M7045 3516 c-14 -20 -15 -75 -13 -421 3 -379 4 -397 22 -411 27 -19
60 -18 79 4 15 17 17 61 17 423 0 302 -3 408 -12 417 -21 21 -76 15 -93 -12z"/>
<path d="M11747 3522 c-15 -17 -17 -60 -17 -415 0 -384 1 -398 20 -417 25 -25
62 -26 83 -2 15 17 17 60 17 416 0 255 -4 404 -10 417 -14 25 -71 26 -93 1z"/>
</g>
</svg>
