<svg width="548" height="385" viewBox="0 0 548 385" fill="none" xmlns="http://www.w3.org/2000/svg">
<g clip-path="url(#clip0_305_1454)">
<g clip-path="url(#clip1_305_1454)">
<g clip-path="url(#clip2_305_1454)">
<g clip-path="url(#clip3_305_1454)">
<path d="M127.421 273.336H91.7789C84.3972 273.336 78.4131 279.321 78.4131 286.702V357.987C78.4131 365.369 84.3972 371.353 91.7789 371.353H127.421C134.803 371.353 140.787 365.369 140.787 357.987V286.702C140.787 279.321 134.803 273.336 127.421 273.336Z" fill="#C6E5F7"/>
<path d="M112.372 305.443L106.812 292.227H104.246V292.697C104.994 292.761 105.144 293.275 104.887 293.959L100.589 305.464C100.289 306.256 99.9259 306.641 99.1133 306.726V307.197H102.364V306.726C101.551 306.641 101.209 306.256 101.508 305.443L102.663 302.363H108.694L109.934 305.357C110.234 306.127 109.849 306.662 109.057 306.726V307.197H113.869V306.726C113.057 306.662 112.714 306.234 112.372 305.443ZM102.963 301.551L105.529 294.622L108.373 301.551H102.963ZM118.44 305.443V292.227H118.055L115.04 293.98V294.451C115.532 294.451 116.024 294.451 116.323 294.451V305.443C116.323 306.277 116.109 306.662 115.318 306.726V307.197H119.445V306.726C118.654 306.662 118.44 306.277 118.44 305.443Z" fill="#1E1928"/>
<path d="M127.421 273.336H91.7789C84.3972 273.336 78.4131 279.321 78.4131 286.702V357.987C78.4131 365.369 84.3972 371.353 91.7789 371.353H127.421C134.803 371.353 140.787 365.369 140.787 357.987V286.702C140.787 279.321 134.803 273.336 127.421 273.336Z" stroke="#1E1928" stroke-width="1.78211"/>
<path d="M170.192 362.705C169.815 363.502 169.19 363.316 168.639 363.316H156.632L150.128 363.215C149.59 363.215 148.763 363.35 148.806 362.382C148.85 361.415 149.678 361.551 150.259 361.551C152.959 361.551 155.659 361.551 158.359 361.652C161.771 361.652 165.197 361.806 168.609 361.907C169.234 361.941 169.916 361.772 170.192 362.705Z" fill="#1E1928"/>
<path d="M227.22 194.923H191.578C184.196 194.923 178.212 200.907 178.212 208.289V357.987C178.212 365.369 184.196 371.353 191.578 371.353H227.22C234.602 371.353 240.586 365.369 240.586 357.987V208.289C240.586 200.907 234.602 194.923 227.22 194.923Z" fill="white"/>
<path d="M209.341 227.03L203.781 213.814H201.215V214.284C201.963 214.348 202.113 214.862 201.856 215.546L197.558 227.051C197.258 227.843 196.895 228.227 196.082 228.313V228.783H199.333V228.313C198.52 228.227 198.178 227.842 198.477 227.03L199.632 223.95H205.663L206.903 226.944C207.202 227.714 206.817 228.249 206.026 228.313V228.783H210.838V228.313C210.025 228.249 209.683 227.821 209.341 227.03ZM199.931 223.138L202.498 216.209L205.342 223.138H199.931ZM221.782 225.533C221.44 226.624 220.862 227.137 218.895 227.137H214.297C217.612 224.399 221.44 221.491 221.632 217.877C221.803 214.969 219.515 213.6 216.756 213.6C214.725 213.6 213.356 214.434 212.757 215.353C212.479 215.781 212.223 216.444 212.501 217.022C212.715 217.471 213.57 217.749 214.105 217.342C214.425 217.107 214.511 216.701 214.511 215.824C214.511 214.862 215.259 214.113 216.756 214.177C218.489 214.241 219.365 215.674 219.237 217.877C219.002 221.919 215.986 224.143 212.009 228.249V228.783H221.782L222.188 225.533H221.782Z" fill="#1E1928"/>
<path d="M227.22 194.923H191.578C184.196 194.923 178.212 200.907 178.212 208.289V357.987C178.212 365.369 184.196 371.353 191.578 371.353H227.22C234.602 371.353 240.586 365.369 240.586 357.987V208.289C240.586 200.907 234.602 194.923 227.22 194.923Z" stroke="#1E1928" stroke-width="1.78211"/>
<path d="M269.991 362.705C269.614 363.502 268.989 363.316 268.437 363.316H256.43L249.927 363.215C249.389 363.215 248.562 363.35 248.605 362.382C248.649 361.415 249.477 361.551 250.058 361.551C252.758 361.551 255.458 361.551 258.158 361.652C261.57 361.652 264.996 361.806 268.408 361.907C269.033 361.941 269.715 361.772 269.991 362.705Z" fill="#1E1928"/>
<path d="M327.018 130.767H291.376C283.994 130.767 278.01 136.751 278.01 144.133V357.987C278.01 365.368 283.994 371.352 291.376 371.352H327.018C334.4 371.352 340.384 365.368 340.384 357.987V144.133C340.384 136.751 334.4 130.767 327.018 130.767Z" fill="white"/>
<path d="M308.27 156.587C309.874 156.18 311.029 155.025 311.029 153.4C311.029 150.342 307.971 149.658 305.062 149.658H300.208V150.128C301.021 150.192 301.234 150.556 301.234 151.39V162.874C301.234 163.708 301.021 164.071 300.208 164.157V164.627H306.474C309.489 164.627 312.505 163.366 312.505 160.436C312.505 158.041 310.665 156.865 308.27 156.587ZM304.827 150.47C307.03 150.47 308.762 151.133 308.762 153.4C308.762 155.581 307.18 156.373 304.977 156.373H303.501V150.47H304.827ZM306.11 163.793H303.501V157.185H305.961C308.206 157.185 310.131 158.212 310.131 160.5C310.131 162.938 308.334 163.793 306.11 163.793ZM317.181 162.874V149.658H316.796L313.781 151.411V151.882C314.272 151.882 314.764 151.882 315.064 151.882V162.874C315.064 163.708 314.85 164.093 314.059 164.157V164.627H318.186V164.157C317.395 164.093 317.181 163.708 317.181 162.874Z" fill="#1E1928"/>
<path d="M327.018 130.767H291.376C283.994 130.767 278.01 136.751 278.01 144.133V357.987C278.01 365.368 283.994 371.352 291.376 371.352H327.018C334.4 371.352 340.384 365.368 340.384 357.987V144.133C340.384 136.751 334.4 130.767 327.018 130.767Z" stroke="#1E1928" stroke-width="1.78211"/>
<path d="M369.788 362.705C369.411 363.502 368.787 363.316 368.235 363.316H356.228L349.724 363.215C349.187 363.215 348.359 363.35 348.403 362.382C348.447 361.415 349.274 361.551 349.855 361.551C352.555 361.551 355.256 361.551 357.956 361.652C361.368 361.652 364.794 361.806 368.206 361.907C368.831 361.941 369.513 361.772 369.788 362.705Z" fill="#1E1928"/>
<path d="M426.817 52.3542H391.174C383.793 52.3542 377.809 58.3383 377.809 65.7201V357.987C377.809 365.369 383.793 371.353 391.174 371.353H426.817C434.198 371.353 440.183 365.369 440.183 357.987V65.7201C440.183 58.3383 434.198 52.3542 426.817 52.3542Z" fill="white"/>
<path d="M405.238 78.1735C406.842 77.7672 407.997 76.6123 407.997 74.9871C407.997 71.9289 404.939 71.2446 402.03 71.2446H397.176V71.7151C397.988 71.7792 398.202 72.1428 398.202 72.9768V84.4608C398.202 85.2948 397.988 85.6584 397.176 85.7439V86.2144H403.442C406.457 86.2144 409.472 84.9526 409.472 82.0228C409.472 79.6277 407.633 78.4515 405.238 78.1735ZM401.795 72.0573C403.998 72.0573 405.73 72.7202 405.73 74.9871C405.73 77.1684 404.147 77.9596 401.945 77.9596H400.469V72.0573H401.795ZM403.078 85.3803H400.469V78.7723H402.928C405.174 78.7723 407.099 79.7988 407.099 82.087C407.099 84.5249 405.302 85.3803 403.078 85.3803ZM420.521 82.9638C420.179 84.0544 419.602 84.5677 417.634 84.5677H413.037C416.351 81.8304 420.179 78.922 420.372 75.3078C420.543 72.3994 418.255 71.0308 415.496 71.0308C413.464 71.0308 412.096 71.8648 411.497 72.7844C411.219 73.2121 410.962 73.875 411.24 74.4524C411.454 74.9015 412.31 75.1795 412.844 74.7732C413.165 74.538 413.25 74.1316 413.25 73.2548C413.25 72.2925 413.999 71.544 415.496 71.6082C417.228 71.6723 418.105 73.1051 417.977 75.3078C417.741 79.3497 414.726 81.5737 410.748 85.6797V86.2144H420.521L420.928 82.9638H420.521Z" fill="#1E1928"/>
<path d="M426.817 52.3542H391.174C383.793 52.3542 377.809 58.3383 377.809 65.7201V357.987C377.809 365.369 383.793 371.353 391.174 371.353H426.817C434.198 371.353 440.183 365.369 440.183 357.987V65.7201C440.183 58.3383 434.198 52.3542 426.817 52.3542Z" stroke="#1E1928" stroke-width="1.78211"/>
<path d="M127.316 115.588C127.805 119.251 129.627 122.594 132.444 124.98C134.435 126.519 136.708 127.647 139.15 128.247C142.643 129.186 146.231 129.769 149.837 129.995C153.068 130.239 156.317 130.502 159.566 130.633C161.163 130.708 162.703 130.388 164.581 130.388C164.769 131.271 164.882 132.155 164.92 133.056C164.9 135.31 164.863 137.564 164.713 139.799C164.375 144.87 164.056 149.866 163.567 154.825C163.173 158.675 162.609 162.582 162.008 166.339C161.708 168.33 161.144 170.096 160.675 172.086C153.65 170.678 148.466 173.307 146.136 179.712C143.808 186.117 146.7 190.981 152.335 194.531C151.471 196.241 150.664 197.893 149.762 199.546C148.86 201.199 147.94 202.833 146.982 204.449C144.991 207.773 142.981 211.06 140.972 214.385C137.515 220.113 134.06 225.823 130.622 231.571C130.022 232.585 129.552 233.674 128.913 234.895C126.209 234.032 123.56 232.998 120.968 231.815C118.319 230.876 115.766 229.805 113.174 228.566C110.581 227.326 108.008 226.067 105.304 224.809C106.468 222.18 107.501 219.982 108.684 217.296C109.868 214.61 110.995 211.905 112.197 209.219C112.704 208.092 113.38 207.022 113.869 205.876C114.957 203.359 115.991 200.805 117.005 198.25C119.616 191.676 122.696 185.328 124.706 178.529C125.926 174.397 126.884 170.189 127.561 165.926C128.237 162.206 128.462 158.431 128.256 154.656C127.862 149.359 127.392 144.063 126.809 138.785C126.096 131.403 124.668 123.89 124.931 116.377C124.95 115.306 124.987 114.255 125.1 113.203L127.185 113.353C127.129 114.104 127.185 114.856 127.316 115.588Z" fill="#F1A283"/>
<path d="M187.608 181.497C187.12 183.694 186.538 185.741 186.125 187.882C185.711 190.023 186.125 190.813 188.172 191.47C189.431 191.827 190.726 192.015 192.023 192.034C197.657 192.447 203.292 192.935 208.927 193.122C211.199 193.198 213.491 193.254 215.783 193.273C220.291 193.348 224.817 193.348 229.344 193.405C229.663 193.329 229.982 193.217 230.264 193.048C227.315 189.799 223.934 186.943 220.234 184.596L215.839 189.554C215.557 189.084 215.295 188.878 215.313 188.69C215.595 186.587 217.454 185.441 218.599 183.6L215.614 182.191L211.237 187.619C211.031 187.939 210.787 188.221 210.504 188.465C210.241 188.653 209.753 188.821 209.546 188.709C209.34 188.596 209.209 188.089 209.209 187.77C209.246 187.451 209.397 187.168 209.603 186.924C210.467 185.722 211.369 184.52 212.27 183.337C212.777 182.661 213.303 182.023 213.961 181.196L210.485 179.581L209.415 180.802C207.744 182.68 206.11 184.558 204.382 186.342C204.006 186.718 203.499 186.906 202.973 186.849C202.222 186.493 202.485 185.761 202.86 185.234C203.705 184.088 204.588 182.943 205.527 181.872C206.466 180.802 207.556 179.749 208.288 178.98L206.898 175.223C206.748 174.584 205.452 175.111 205.603 173.852L207.668 173.739V173.363C206.842 173.214 206.015 173.119 205.17 173.063C202.954 173.007 192.642 172.049 189.75 172.012V172.18C189.506 173.232 189.299 174.058 189.092 174.923C188.604 177.12 188.097 179.299 187.608 181.497ZM145.141 84.0713L146.23 88.9356L148.465 89.0488H153.33C159.434 89.5558 165.539 90.0441 171.625 90.7204C173.259 91.0207 174.949 90.5698 176.226 89.5175C179.588 86.7196 183.382 84.3903 186.519 81.3848C191.102 76.9901 195.329 72.182 199.667 67.4674C200.7 66.5095 201.376 65.213 201.546 63.823C200.474 64.7621 199.667 65.5133 198.878 66.1148C198.089 66.7162 197.545 67.9931 195.836 67.5797C196.173 67.0165 196.549 66.4908 196.962 65.9829C198.184 64.6499 199.442 63.3534 200.719 62.0391C201.169 61.5508 201.752 61.1186 201.283 60.0476C200.362 60.9306 199.404 61.7575 198.408 62.5461C197.413 63.2598 196.831 64.6124 195.178 64.7809C196.248 61.9072 198.935 60.6303 200.625 58.0382C199.254 58.1888 197.996 58.8642 197.113 59.9166C196.173 60.7613 195.234 61.6443 194.389 62.5087C193.939 63.0344 193.168 63.0905 192.642 62.6396C192.586 62.6022 192.549 62.5461 192.511 62.5087C192.793 61.9072 193.168 61.3628 193.6 60.8558C194.69 59.8417 195.892 58.9774 197.056 58.0008C197.582 57.5874 198.221 57.2122 197.526 56.2534C196.943 56.4789 196.399 56.7801 195.892 57.1365C194.427 58.5078 193.018 59.9166 191.628 61.344C190.896 62.3206 189.975 63.1467 188.924 63.7855L189.562 59.766L189.149 59.6537C188.566 60.7239 188.003 61.7949 187.439 62.8838C185.073 66.9978 181.41 70.1905 177.015 71.9752C173.183 73.6469 169.239 75.0743 165.239 76.2951C164.656 76.558 163.999 76.6328 163.36 76.5205C162.909 76.3699 162.609 75.6936 162.233 75.2615C157.782 80.5588 151.827 82.9629 145.141 84.0713ZM123.898 172.875C125.438 167.466 126.17 161.85 126.095 156.215C126.095 154.882 125.87 154.713 124.461 154.337C119.427 152.965 114.037 154.149 110.017 157.473C108.384 158.732 106.843 160.084 105.378 161.55C102.561 164.498 99.499 165.305 95.8181 163.296C94.1277 162.45 92.1923 162.206 90.3336 162.601C88.1737 162.977 86.5021 164.705 86.1634 166.865C85.75 168.762 86.6143 170.696 88.2859 171.673C90.6152 173.176 93.3382 173.946 96.0996 173.909C102.598 174.171 109.079 173.909 115.559 173.589C118.225 173.495 120.911 173.439 123.522 173.382V173.458C123.71 173.176 123.861 173.044 123.898 172.875ZM125.626 76.1258C128.687 75.2428 131.749 74.3606 134.755 73.3083C137.759 72.2568 141.009 70.8106 144.145 69.646C146.361 68.8191 148.465 67.6741 150.362 66.2466C152.917 64.6686 154.514 61.9072 154.551 58.9026C154.851 56.7613 153.349 54.7885 151.208 54.507C151.076 54.4883 150.926 54.4695 150.794 54.4695C149.179 54.2628 147.564 54.2628 145.949 54.4695C139.337 55.521 132.8 56.5172 126.17 57.8315C122.357 58.7333 118.601 59.823 114.901 61.0999C111.877 62.0016 109.623 64.518 109.022 67.6171C108.083 71.3738 107.143 75.2811 106.224 79.0939C105.303 82.9067 104.101 87.0573 102.899 90.9833C102.072 93.6689 101.021 96.261 100.044 98.9092C98.6169 103.304 96.8882 107.606 94.8789 111.756C93.8453 114.011 92.2494 115.945 90.2391 117.392C89.864 117.729 89.488 118.087 89.169 118.48C90.8593 118.48 91.8546 117.504 93.0567 117.147C94.2587 116.79 95.123 115.269 96.6441 115.381C96.6441 116.64 96.6441 116.715 95.7236 117.26C93.9771 118.218 92.1549 119.138 90.3897 120.002C89.807 120.284 89.0558 120.453 89.0371 121.43C89.3187 121.43 89.5815 121.637 89.7696 121.561C92.6058 120.584 95.2353 119.138 97.5645 117.241C98.0154 116.678 98.7666 116.471 99.4429 116.734C99.3493 117.034 99.1987 117.335 99.0294 117.598C97.9218 119.119 96.4186 120.321 94.6909 121.072C93.4888 121.579 92.2494 122.03 91.0473 122.537C90.6526 122.801 90.2962 123.12 89.9763 123.458C91.066 123.458 91.6853 123.458 92.2868 123.251C95.254 122.707 98.0154 121.411 100.345 119.495C100.833 119.101 101.377 118.725 101.884 118.349L102.26 118.612C102.26 118.988 102.26 119.477 101.979 119.702C101.284 120.396 100.533 121.035 99.7057 121.579C98.3157 122.444 96.8882 123.176 95.1792 124.134C99.311 124.397 101.547 123.458 103.669 120.547C104.777 119.026 105.754 117.448 106.618 115.776C108.759 111.663 110.807 107.53 112.853 103.38C115.014 98.9467 116.949 94.4014 118.639 89.7625C120.085 85.8365 121.85 82.0237 123.391 78.136C123.747 77.1211 124.593 76.3699 125.626 76.1258ZM132.444 124.98C129.627 122.594 127.804 119.251 127.316 115.588C127.185 114.856 127.129 114.104 127.185 113.353C127.185 112.959 127.692 112.602 127.955 112.245C128.293 112.545 128.781 112.789 128.95 113.184C129.157 113.785 129.308 114.423 129.345 115.062C129.852 120.472 133.797 124.942 139.112 126.106C145.103 127.703 151.283 128.454 157.481 128.342C165.182 128.342 172.864 127.91 180.546 127.609C185.711 127.346 190.877 127.045 196.455 126.764C196.38 127.572 196.248 128.379 196.08 129.186C194.446 135.216 192.849 141.245 191.102 147.255C189.224 153.623 187.346 159.934 185.467 166.283C184.942 167.409 184.754 168.668 184.923 169.908L210.617 171.523C210.88 170.527 211.106 169.645 211.369 168.743C212.326 165.362 213.247 162.019 214.28 158.656C215.313 155.294 216.008 151.876 217.022 148.533C219.238 141.301 221.586 134.126 223.841 126.914C224.648 124.81 225.08 122.576 225.118 120.321L223.239 120.077C216.458 119.42 211.519 113.391 212.176 106.61C212.345 104.995 212.815 103.417 213.585 101.99C213.886 101.332 214.223 100.694 214.542 100.111C214.337 99.9607 214.111 99.8297 213.886 99.7352C206.748 97.8952 199.498 96.4107 192.21 95.3218C184.697 94.4575 177.184 93.4435 169.672 92.5979C164.206 91.9973 158.72 91.6026 153.236 91.1704C148.316 90.7204 143.357 90.8514 138.454 91.5651C133.495 92.2602 129.364 95.7353 127.804 100.487C126.321 104.6 125.419 108.864 125.1 113.203C124.987 114.255 124.949 115.306 124.931 116.378C124.668 123.89 126.095 131.403 126.809 138.785C127.392 144.063 127.861 149.359 128.255 154.656C128.462 158.431 128.236 162.206 127.56 165.926C126.884 170.189 125.926 174.397 124.705 178.529C122.696 185.328 119.616 191.676 117.005 198.25C115.991 200.805 114.957 203.36 113.868 205.876C113.38 207.022 112.704 208.092 112.197 209.219C110.995 211.906 109.867 214.61 108.684 217.296C107.501 219.982 106.468 222.18 105.303 224.809C108.008 226.067 110.581 227.326 113.173 228.566C115.765 229.805 118.319 230.876 120.968 231.815C123.559 232.998 126.208 234.032 128.913 234.895C129.552 233.674 130.021 232.586 130.622 231.571C134.06 225.823 137.515 220.113 140.971 214.385C142.981 211.06 144.991 207.773 146.982 204.449C147.94 202.833 148.86 201.199 149.762 199.547C150.663 197.894 151.471 196.241 152.335 194.531C146.7 190.981 143.808 186.117 146.136 179.712C148.465 173.307 153.649 170.678 160.675 172.086C161.144 170.096 161.707 168.33 162.008 166.339C162.609 162.582 163.172 158.676 163.567 154.825C164.055 149.866 164.374 144.87 164.713 139.799C164.862 137.564 164.9 135.31 164.92 133.056C164.881 132.155 164.769 131.272 164.581 130.388C162.703 130.388 161.163 130.708 159.566 130.634C156.316 130.502 153.068 130.239 149.837 129.995C146.23 129.769 142.643 129.186 139.149 128.247C136.708 127.647 134.435 126.52 132.444 124.98ZM124.668 103.793C125.476 99.1908 127.88 95.0215 131.486 92.0534C132.839 90.814 134.529 90.0254 136.35 89.7812C138.755 89.4426 141.178 89.1985 143.601 88.8982L144.728 88.785L143.301 83.8833C142.85 83.7702 142.399 83.6953 141.929 83.6579C137.515 83.3006 133.383 81.2912 130.378 78.0229C129.852 77.2904 128.894 77.0275 128.067 77.4027C127.729 77.572 127.373 77.6851 126.997 77.7226C124.949 77.7226 124.368 79.0939 123.785 80.7272C121.682 86.4754 119.578 92.2227 117.23 97.8765C115.728 101.445 113.849 104.845 112.046 108.281C109.98 112.489 107.689 116.583 105.171 120.528C103.049 123.984 99.1052 125.862 95.0856 125.336C94.6722 125.336 94.2587 125.111 93.8265 125.036C93.3953 124.961 92.5122 124.848 91.9482 124.81C91.2157 124.885 90.4646 124.885 89.7321 124.81C89.169 124.604 88.6807 124.19 88.3991 123.646C88.0044 122.876 87.7228 122.068 87.5722 121.223C87.5535 120.81 87.6096 120.377 87.7228 119.984C87.7228 119.682 88.0605 119.345 87.9669 119.138C87.3093 117.729 88.3234 116.997 89.169 116.32C92.0988 113.842 94.2587 110.592 95.4046 106.93C97.5458 100.731 99.9499 94.6081 101.96 88.3538C103.237 84.3903 104.026 80.2585 105.002 76.1819C105.566 73.7966 106.073 71.4112 106.524 69.0259C107.125 64.011 110.807 59.9166 115.728 58.8081C117.042 58.4517 118.3 57.8876 119.728 57.3806C119.541 55.9344 119.334 54.5257 119.165 53.1169C119.052 52.0655 118.958 50.9944 118.883 49.943C118.807 48.8915 119.221 48.6848 120.085 48.6091C125.081 48.2526 130.077 47.8205 135.111 47.5015C140.145 47.1816 145.235 46.9187 150.306 46.712C155.377 46.5053 160.168 46.4679 165.088 46.3369C166.459 46.3369 167.831 46.1863 169.202 46.1863C170.572 46.1863 170.798 46.393 170.835 47.6699C170.911 49.0412 170.817 50.4313 170.591 51.7839C169.784 56.0093 168.901 60.2356 167.962 64.4431C167.417 66.7724 166.441 68.9697 165.088 70.9229C164.281 72.0127 164.186 73.4776 164.806 74.6796C165.633 74.4542 166.441 74.21 167.267 74.0033C172.188 72.689 176.846 70.4907 180.997 67.5422C183.194 65.8706 184.979 63.7294 186.2 61.2505C186.669 60.3675 187.214 59.5218 187.834 58.752C189.374 57.0055 190.257 57.1552 191.29 59.3909C192.191 58.4891 193.037 57.5125 193.939 56.7801C194.52 56.216 195.141 55.7277 195.817 55.2956C196.718 54.7698 198.127 54.3573 198.615 55.1271C199.554 56.6482 202.278 56.0289 202.372 58.4891C202.372 59.3338 202.954 60.1794 202.916 60.9867C202.672 62.0578 202.672 63.1663 202.916 64.2364C203.104 64.7996 202.56 65.8145 202.109 66.4338C200.4 68.6694 198.672 70.8855 196.812 72.9893C192.267 78.267 187.232 83.0939 181.786 87.4333C180.208 88.6353 178.574 89.7625 176.884 90.9833C177.391 91.6587 178.03 91.4903 178.611 91.5651C185.054 92.392 191.534 93.0675 197.939 94.1198C202.184 94.8148 206.335 95.9981 210.523 97.0496C212.045 97.4069 213.585 97.6698 215.125 98.0075C219.107 98.7774 222.638 101.088 224.93 104.431C226.714 107.174 227.747 110.329 227.916 113.597C228.085 118.161 227.447 122.725 226.038 127.084C224.629 131.685 223.126 136.249 221.68 140.832C220.234 145.415 218.787 149.886 217.436 154.431C216.909 156.159 216.759 158 216.252 159.727C215.125 163.634 213.886 167.504 212.627 171.354C212.458 171.88 211.913 172.631 211.481 172.688C209.697 172.894 209.321 174.19 208.964 175.542C208.964 175.824 208.833 176.125 208.72 176.594C209.885 177.157 210.974 177.721 212.101 178.228C216.44 180.163 220.591 182.492 224.497 185.215C226.301 186.455 228.01 187.807 229.607 189.31C230.714 190.474 231.672 191.789 232.462 193.198C232.743 193.968 232.931 194.795 232.987 195.621L186.218 194.551C184.077 193.085 183.157 190.381 183.946 187.902C184.491 184.896 185.43 181.966 186.106 178.98C186.801 176.801 187.232 174.416 187.74 171.824C186.332 171.673 185.279 171.617 184.265 171.41C182.875 171.128 182.612 170.791 182.931 169.532C183.928 165.531 184.942 161.531 186.069 157.567C187.552 152.402 189.205 147.294 190.726 142.128C191.797 138.371 192.774 134.784 193.788 131.102C193.995 130.332 194.201 129.544 194.446 128.698L166.497 130.37V131.91C166.309 137.79 166.271 143.668 165.877 149.528C165.351 157.398 164.111 165.193 162.121 172.819C161.313 176.031 160.599 179.28 159.51 182.398C158.42 185.515 156.862 189.009 155.416 192.278C152.823 197.969 149.837 203.453 146.456 208.712C143.62 213.202 141.084 217.879 138.379 222.443C136.501 225.504 134.623 228.529 132.858 231.589C132.087 232.867 131.411 234.219 130.622 235.497C129.833 236.774 129.796 236.755 128.387 236.285C127.636 236.041 126.509 235.534 126.133 235.853C125.325 236.511 124.668 237.375 124.254 238.333C124.161 238.859 124.311 239.403 124.649 239.817C126.527 242.371 128.575 244.85 130.434 247.423C132.613 250.016 134.416 252.889 135.787 255.97C136.35 257.566 136.745 259.201 136.971 260.872C137.027 261.679 136.877 262.487 136.538 263.239C136.294 264.609 134.999 265.53 133.627 265.286C133.421 265.286 133.233 265.192 133.045 265.116C131.43 264.628 129.852 264.009 128.35 263.239C123.109 260.74 117.888 258.186 112.685 255.612C110.374 254.486 108.14 253.227 105.866 252.063C103.593 250.899 101.716 250.034 99.7057 248.907C97.3391 247.968 96.1745 245.301 97.1136 242.934C97.1698 242.765 97.2455 242.615 97.3391 242.446C98.2408 240.117 99.2549 237.845 100.401 235.628C101.64 233.242 103.068 230.97 104.383 228.622C104.59 228.209 104.758 227.777 104.909 227.344C104.796 227.12 104.777 226.969 104.683 226.894C103.086 225.749 102.974 225.711 103.669 223.926C105.059 220.376 106.543 216.864 108.045 213.352C110.468 207.717 112.985 202.082 115.408 196.316C117.136 192.24 118.789 188.126 120.404 183.994C121.343 181.553 122.132 179.036 122.959 176.481C123.015 176.106 123.015 175.73 122.959 175.355C120.648 175.016 118.3 174.979 115.991 175.242C110.619 175.373 105.265 175.618 99.8937 175.674C97.2081 175.674 94.5216 175.523 91.8546 175.185C89.5441 174.828 87.4216 173.702 85.8445 171.955C84.1158 170.114 83.722 167.391 84.8866 165.137C86.0325 161.981 89.3187 160.141 92.6058 160.817C94.0146 161.042 95.4046 161.399 96.7385 161.887C99.5364 162.883 100.983 163.484 104.139 160.291C105.923 158.375 107.914 156.647 110.055 155.145C112.346 153.699 114.901 152.759 117.568 152.365C119.916 151.951 122.32 152.007 124.668 152.477C125.044 152.496 125.4 152.496 125.776 152.477C125.776 151.2 125.682 150.035 125.57 148.871C124.781 141.659 124.029 134.446 123.147 127.252C122.32 121.035 122.564 114.725 123.861 108.601C124.217 107.023 124.424 105.408 124.668 103.793ZM124.556 258.299C126.753 259.482 128.95 260.647 131.205 261.754C132.2 262.393 133.383 262.675 134.567 262.563C135.618 260.196 133.946 254.842 131.411 252.345C129.852 252.345 128.857 254.542 126.903 253.735C127.467 251.725 129.664 251.856 130.528 250.335L128.443 247.311C127.936 247.555 127.541 247.724 127.166 247.93C125.288 248.983 123.41 250.072 121.418 251.067C121.118 251.236 120.63 251.067 120.216 251.067C120.329 250.692 120.329 250.147 120.592 249.959C121.606 249.227 122.658 248.551 123.747 247.949C124.856 247.311 126.02 246.747 127.335 246.071L124.8 242.634L118.282 246.71C117.888 247.029 117.474 247.292 117.023 247.498C116.686 247.611 116.328 247.536 116.047 247.311C115.915 246.991 115.972 246.635 116.178 246.353C116.666 245.789 117.249 245.301 117.888 244.888C119.484 243.93 121.155 243.009 122.789 242.146C123.128 241.92 123.447 241.695 123.766 241.432C123.203 240.324 122.339 239.403 122.846 238.182C123.353 236.962 123.879 236.304 124.424 235.215L106.881 228.096C104.608 232.228 102.354 236.248 100.157 240.305C98.9733 242.54 99.1987 243.892 101.321 245.282C103.988 247.029 106.75 248.588 109.529 250.147C114.506 252.908 119.521 255.594 124.556 258.299Z" fill="#1E1928"/>
<path d="M230.265 193.048C229.982 193.217 229.663 193.329 229.344 193.405C224.818 193.349 220.291 193.349 215.783 193.273L215.839 189.555L220.234 184.596C223.935 186.944 227.315 189.799 230.265 193.048Z" fill="#EDE6DD"/>
<path d="M223.239 120.077L225.117 120.321C225.08 122.575 224.648 124.81 223.84 126.914C221.586 134.126 219.238 141.301 217.022 148.533C216.008 151.876 215.313 155.294 214.279 158.656C213.247 162.018 212.326 165.362 211.368 168.743C211.105 169.645 210.88 170.527 210.617 171.522L184.923 169.908C184.753 168.667 184.923 167.409 185.467 166.282C187.345 159.934 189.224 153.623 191.102 147.255C192.848 141.245 194.445 135.216 196.079 129.186C196.248 128.379 196.38 127.571 196.455 126.764C190.877 127.045 185.711 127.346 180.546 127.609C172.864 127.91 165.182 128.342 157.481 128.342C151.282 128.454 145.103 127.703 139.111 126.106C133.796 124.941 129.852 120.472 129.345 115.062C129.307 114.423 129.157 113.785 128.95 113.184C128.781 112.789 128.292 112.545 127.955 112.245C127.692 112.601 127.185 112.958 127.185 113.353L125.1 113.203C125.419 108.864 126.32 104.6 127.804 100.487C129.363 95.7353 133.495 92.2601 138.454 91.5651C143.356 90.8514 148.315 90.7195 153.236 91.1704C158.72 91.6025 164.205 91.9973 169.671 92.5978C177.184 93.4435 184.697 94.4575 192.21 95.3218C199.498 96.4107 206.748 97.8952 213.885 99.7352C214.111 99.8297 214.336 99.9606 214.542 100.111C214.223 100.693 213.885 101.332 213.584 101.99C212.814 103.417 212.345 104.994 212.175 106.61C211.519 113.391 216.458 119.42 223.239 120.077Z" fill="#F1A283"/>
<path d="M215.613 182.191L218.599 183.6C217.454 185.441 215.595 186.586 215.313 188.69C215.313 188.878 215.557 189.084 215.839 189.554L215.783 193.273C213.491 193.254 211.199 193.198 208.927 193.122C203.292 192.935 197.657 192.447 192.023 192.034C190.726 192.015 189.431 191.827 188.172 191.47C186.125 190.813 185.711 190.023 186.125 187.882C186.538 185.741 187.12 183.694 187.608 181.497C188.097 179.299 188.604 177.12 189.092 174.923C189.299 174.058 189.505 173.232 189.75 172.18V172.011C192.642 172.049 202.954 173.007 205.17 173.063C206.016 173.119 206.842 173.214 207.668 173.363V173.739L205.602 173.852C205.452 175.111 206.748 174.584 206.898 175.223L208.288 178.98C207.556 179.749 206.466 180.802 205.527 181.872C204.588 182.943 203.705 184.088 202.86 185.234C202.485 185.76 202.222 186.493 202.973 186.849C203.499 186.905 204.006 186.718 204.382 186.342C206.109 184.558 207.744 182.68 209.415 180.802L210.485 179.58L213.961 181.196C213.303 182.022 212.777 182.66 212.27 183.337C211.368 184.52 210.467 185.722 209.603 186.924C209.397 187.168 209.246 187.451 209.208 187.77C209.208 188.089 209.34 188.596 209.546 188.709C209.753 188.821 210.241 188.653 210.504 188.465C210.787 188.221 211.031 187.939 211.237 187.619L215.613 182.191Z" fill="#EDE6DD"/>
<path d="M131.412 252.345C133.947 254.842 135.618 260.196 134.567 262.563C133.384 262.675 132.2 262.393 131.205 261.754C128.951 260.646 126.753 259.482 124.556 258.299C119.522 255.594 114.507 252.908 109.529 250.147C106.75 248.588 103.989 247.029 101.322 245.282C99.1992 243.892 98.9738 242.54 100.157 240.305C102.354 236.248 104.609 232.228 106.881 228.096L124.424 235.214C123.88 236.304 123.354 236.962 122.846 238.182C122.339 239.403 123.203 240.324 123.767 241.432C123.448 241.695 123.129 241.92 122.79 242.146C121.156 243.009 119.484 243.93 117.888 244.888C117.249 245.301 116.667 245.789 116.178 246.352C115.972 246.635 115.915 246.991 116.047 247.31C116.329 247.536 116.686 247.611 117.024 247.498C117.475 247.292 117.888 247.029 118.282 246.71L124.8 242.634L127.335 246.071C126.021 246.747 124.856 247.31 123.748 247.949C122.659 248.551 121.607 249.226 120.593 249.959C120.33 250.147 120.33 250.692 120.217 251.067C120.63 251.067 121.118 251.236 121.419 251.067C123.41 250.072 125.288 248.982 127.167 247.93C127.542 247.724 127.937 247.554 128.444 247.31L130.529 250.335C129.664 251.856 127.467 251.725 126.904 253.734C128.857 254.542 129.852 252.345 131.412 252.345Z" fill="#EDE6DD"/>
<path d="M155.565 30.5402L154.983 31.8554C153.33 36.3633 148.728 39.0677 143.976 38.3165C137.984 37.3399 133.665 32.0622 133.871 25.995C134.116 19.402 139.168 13.9746 145.742 13.2796C149.705 12.6968 153.724 14.0307 156.542 16.8857C157.575 17.9184 158.345 19.1766 158.74 20.5853C159.454 23.1213 159.698 25.7695 159.454 28.3803C159.454 29.2259 158.833 29.9584 157.988 30.0707C157.237 30.2774 156.429 30.3905 155.565 30.5402ZM150.494 24.5862L144.427 25.5067C144.296 25.2999 144.033 24.9622 143.808 24.5862C143.206 23.3842 141.741 22.9146 140.558 23.516C140.483 23.5535 140.389 23.6096 140.314 23.647C138.849 24.3982 138.266 26.183 139.018 27.6292C139.751 28.4748 140.577 29.2634 141.46 29.9584L138.342 33.4522L139.6 34.5972C144.24 38.6729 151.959 37.1332 153.856 31.2727C154.138 29.6011 155.697 28.4552 157.369 28.7002C157.369 28.7002 157.557 28.5496 157.762 28.399C158.064 27.1034 157.969 25.7321 157.518 24.4739C156.448 25.4318 155.265 26.2391 153.968 26.878C152.372 27.3663 151.357 26.0894 150.494 24.5675V24.5862ZM148.616 23.4216C149.667 23.8537 150.889 23.5347 151.603 22.633C152.56 21.3748 154.363 21.1494 155.602 22.1073C155.716 22.1821 155.809 22.2757 155.904 22.3701C156.316 22.6891 156.542 23.4029 157.274 23.0464C157.443 20.8678 156.411 18.7453 154.588 17.5433C153.687 18.5386 152.71 19.59 151.847 20.5479C150.982 21.5058 149.93 22.3327 148.709 23.4216H148.616Z" fill="#1E1928"/>
<path d="M123.521 173.382C120.911 173.382 118.225 173.495 115.558 173.589C109.078 173.814 102.598 174.171 96.0991 173.908C93.3378 173.946 90.6147 173.175 88.2855 171.673C86.6138 170.696 85.7495 168.762 86.163 166.865C86.5016 164.705 88.1732 162.976 90.3331 162.601C92.1919 162.206 94.1272 162.45 95.8176 163.296C99.5743 165.38 102.56 164.498 105.378 161.549C106.843 160.084 108.383 158.731 110.017 157.473C114.036 154.148 119.427 152.965 124.461 154.336C125.869 154.637 126.039 154.806 126.095 156.215C126.17 161.85 125.437 167.465 123.897 172.875C123.86 172.968 123.709 173.1 123.521 173.382Z" fill="white"/>
<path d="M147.583 29.4504L150.701 32.3241C150.044 33.2446 149.198 32.8694 148.579 32.4934C147.565 31.8554 147.132 30.5776 147.583 29.4504Z" fill="#1E1928"/>
<path d="M140.821 24.8677L141.121 28.4176C140.314 28.6992 139.976 28.0799 139.751 27.3475C139.375 26.2203 139.675 25.5814 140.821 24.8677Z" fill="#1E1928"/>
<path d="M453.774 351.597C452.31 353.161 450.707 354.645 449.024 356.01C448.232 356.664 447.402 357.277 446.53 357.851L446.036 357.594C446.154 356.941 446.332 356.288 446.551 355.674C448.015 352.844 447.836 349.46 446.076 346.828C445.758 346.214 445.62 345.522 445.7 344.849C445.799 338.615 447.48 332.519 450.608 327.156C451.577 325.573 452.408 323.911 453.081 322.209C453.556 320.705 453.872 319.161 454.011 317.598C454.644 312.749 455.099 307.9 455.832 303.091C456.208 301.271 456.822 299.529 457.633 297.887C458.226 296.6 459.255 295.59 460.542 295.037C462.125 294.324 463.333 294.859 463.649 296.58C463.867 297.61 463.867 298.658 463.649 299.707C463.056 302.122 462.264 304.516 461.511 306.891C460.819 308.89 460.72 311.047 461.234 313.125C461.531 314.194 462.006 315.243 462.205 316.331C462.64 318.231 462.897 320.19 462.976 322.169C462.877 323.396 462.461 324.584 461.769 325.632C460.918 326.958 459.928 328.205 458.84 329.353C456.485 331.906 455.574 335.488 456.406 338.892C457.633 343.285 456.644 348.015 453.774 351.597Z" fill="#B2D3C5"/>
<path d="M418.903 310.216C419.695 309.563 420.803 309.464 421.694 309.998C422.723 310.434 423.673 311.047 424.524 311.779C426.404 313.442 427.947 315.46 429.075 317.716C429.769 319.062 430.54 320.388 431.391 321.674C432.341 323.099 433.627 324.267 435.152 325.059C435.962 325.494 436.695 326.088 437.486 326.563C440.713 328.403 441.128 331.312 440.713 334.597C440.554 335.963 440.415 337.249 440.277 338.555C440.158 340.673 440.812 342.791 442.118 344.493C442.87 345.64 443.621 346.828 444.473 347.896C445.621 349.302 445.976 351.201 445.442 352.943C444.968 355.041 444.215 357.059 443.463 359.435C441.781 358.168 440.158 356.822 438.614 355.397C434.735 351.756 432.281 346.828 431.727 341.544C431.194 336.596 429.492 331.847 426.78 327.691C424.801 324.425 422.723 321.239 420.744 317.954C419.913 316.549 419.3 315.005 418.606 313.521C418.488 313.283 418.409 313.026 418.369 312.789C418.271 311.878 418.073 310.868 418.903 310.216Z" fill="#B2D3C5"/>
<path d="M445.442 352.943C445.976 351.202 445.621 349.302 444.473 347.896C443.621 346.828 442.87 345.641 442.118 344.493C440.812 342.791 440.158 340.673 440.277 338.555C440.415 337.25 440.554 335.963 440.713 334.597C441.128 331.313 440.713 328.404 437.486 326.563C436.695 326.088 435.962 325.494 435.152 325.059C433.627 324.267 432.341 323.1 431.391 321.674C430.54 320.389 429.769 319.063 429.075 317.716C427.947 315.46 426.404 313.442 424.524 311.779C423.673 311.048 422.723 310.434 421.694 309.999C420.803 309.464 419.695 309.563 418.903 310.216C418.073 310.869 418.271 311.879 418.369 312.789C418.409 313.027 418.488 313.283 418.606 313.521C419.3 315.006 419.913 316.549 420.744 317.954C422.723 321.24 424.801 324.426 426.78 327.691C429.492 331.847 431.194 336.597 431.727 341.544C432.281 346.828 434.735 351.756 438.614 355.397C440.158 356.822 441.781 358.168 443.463 359.435C444.215 357.06 444.967 355.041 445.442 352.943ZM449.717 324.525C451.102 322.327 451.913 319.854 452.091 317.281C452.508 313.085 452.804 308.871 453.477 304.715C453.913 302.182 454.625 299.688 455.615 297.332C456.485 295.057 458.405 293.355 460.76 292.761C462.481 292.108 464.421 292.979 465.074 294.7C465.134 294.859 465.173 295.017 465.212 295.196C465.747 297.175 465.688 299.272 465.055 301.232C464.679 302.616 464.204 304.002 463.669 305.347C462.521 308.177 462.521 311.364 463.669 314.214C464.54 316.628 464.896 319.22 464.718 321.794C464.679 323.832 463.985 325.811 462.739 327.433C461.947 328.423 461.136 329.412 460.285 330.284C458.781 331.866 458.048 334.044 458.306 336.221C458.643 338.497 458.8 340.792 458.821 343.108C458.86 347.244 457.04 351.202 453.853 353.874C451.696 355.674 449.539 357.514 447.381 359.355C447.203 359.534 447.045 359.712 446.906 359.929L446.966 360.8H457.811C460.899 360.8 453.134 360.899 456.222 360.8C462.159 360.8 448.414 360.899 454.272 360.879C457.696 360.879 461.832 360.761 465.235 360.879C465.889 360.899 466.522 361.077 467.116 361.354C467.373 361.532 467.512 361.829 467.492 362.166C467.373 362.443 467.156 362.68 466.859 362.799C466.542 362.858 466.206 362.858 465.889 362.799C460.565 362.799 455.222 362.542 449.899 362.522C446.871 362.522 466.211 362.166 463.182 362.166C458.572 362.166 461.314 362.601 456.664 362.581H447.005C443.78 362.581 448.926 362.561 445.442 362.561C442.929 362.561 446.155 362.542 443.642 362.641L446.309 362.561L440.973 362.72C440.281 362.72 439.635 363.018 439.516 362.048C439.398 361.079 440.063 360.78 440.815 360.721C442.913 360.563 443.91 361.301 439.291 360.66V359.435L439.723 360.266C440.178 360.266 440.614 360.266 441.524 360.147L439.149 358.029C434.122 354.151 430.837 348.471 429.986 342.197C429.174 336.557 427.096 331.194 423.91 326.504C421.733 323.04 419.576 319.577 417.597 316.014C416.984 314.768 416.588 313.422 416.449 312.056C416.094 309.978 417.478 307.999 419.556 307.623C419.833 307.584 420.13 307.564 420.407 307.584C422.347 307.743 424.148 308.594 425.474 309.999C427.611 311.878 429.353 314.155 430.599 316.727C432.103 320.032 434.656 322.783 437.862 324.525C441.326 326.286 443.225 330.125 442.494 333.965C442.375 335.093 442.196 336.181 442.097 337.309C441.82 339.406 442.375 341.544 443.661 343.246C443.78 342.573 443.859 342.158 443.898 341.761C444.373 335.607 446.373 329.689 449.717 324.525ZM453.774 351.598C456.644 348.016 457.633 343.286 456.406 338.892C455.575 335.488 456.485 331.906 458.84 329.353C459.928 328.206 460.918 326.958 461.769 325.632C462.462 324.584 462.878 323.397 462.977 322.17C462.897 320.191 462.64 318.231 462.205 316.332C462.006 315.243 461.531 314.194 461.235 313.126C460.72 311.048 460.819 308.89 461.512 306.892C462.264 304.516 463.056 302.122 463.649 299.707C463.867 298.658 463.867 297.61 463.649 296.58C463.333 294.859 462.126 294.324 460.542 295.037C459.256 295.591 458.226 296.6 457.633 297.887C456.821 299.53 456.208 301.271 455.832 303.091C455.1 307.9 454.644 312.749 454.012 317.598C453.873 319.162 453.556 320.705 453.081 322.209C452.409 323.911 451.577 325.574 450.608 327.157C447.48 332.519 445.799 338.615 445.7 344.849C445.621 345.522 445.759 346.215 446.076 346.828C447.837 349.46 448.015 352.844 446.551 355.674C446.333 356.287 446.154 356.941 446.036 357.594L446.53 357.851C447.402 357.277 448.232 356.663 449.024 356.011C450.707 354.645 452.31 353.161 453.774 351.598Z" fill="#1E1928"/>
<path d="M469.588 43.2947C468.8 43.6734 468.281 43.9434 467.666 44.1599C466.61 44.5734 465.495 44.8621 464.496 45.3664C463.707 45.8743 463.036 46.5275 462.523 47.2858C462.012 48.0449 461.67 48.8923 461.517 49.7789C461.489 50.0169 461.437 50.2521 461.364 50.4811C461.114 50.8411 460.826 51.4176 460.499 51.4541C459.789 51.5441 459.616 50.932 459.538 50.3733C459.339 49.2755 458.865 48.2365 458.158 47.3419C457.45 46.4473 456.527 45.7211 455.465 45.2221C454.546 44.8229 453.603 44.4745 452.64 44.1778C452.219 43.9568 451.825 43.6904 451.469 43.3847C451.75 42.9695 452.092 42.5935 452.487 42.2682C453.19 41.8459 453.929 41.4787 454.696 41.1696C455.888 40.6554 456.932 39.8829 457.74 38.9152C458.549 37.9466 459.1 36.8123 459.347 35.6049C459.385 35.252 459.511 34.9134 459.711 34.614C459.857 34.4697 460.033 34.3556 460.228 34.2781C460.423 34.2006 460.633 34.1614 460.845 34.1639C461.04 34.2309 461.215 34.3387 461.358 34.4795C461.501 34.6203 461.608 34.7887 461.671 34.974C461.883 35.6584 461.921 36.3792 462.075 37.0814C462.259 38.1836 462.78 39.2119 463.575 40.0433C464.369 40.8737 465.403 41.4716 466.552 41.7639C467.147 41.9626 467.781 42.0882 468.358 42.3226C468.802 42.605 469.215 42.9312 469.588 43.2947ZM460.345 46.5373L464.092 42.9347C463.413 42.3716 462.772 41.7701 462.17 41.1339C461.564 40.4621 461 39.759 460.48 39.0266C458.847 40.3596 457.271 41.6917 455.773 42.9347L460.345 46.5373Z" fill="#1E1928"/>
<path d="M440.919 35.7305C440.669 35.4784 440.208 35.2262 440.131 34.884C439.909 33.6873 439.263 32.5958 438.297 31.7849C437.331 30.975 436.102 30.4929 434.809 30.4181C434.607 30.361 434.424 30.2586 434.273 30.1204C434.123 29.9832 434.009 29.813 433.944 29.625C433.946 29.4272 433.995 29.2321 434.088 29.0538C434.181 28.8765 434.316 28.7206 434.483 28.5985C435.011 28.2715 435.587 28.0167 436.192 27.842C437.106 27.6273 437.937 27.1755 438.589 26.5384C439.242 25.9013 439.69 25.1047 439.881 24.2404C439.936 23.9445 440.053 23.663 440.227 23.4117C440.295 23.2736 440.403 23.1568 440.539 23.0749C440.675 22.9929 440.834 22.9492 440.996 22.9492C441.157 22.9492 441.316 22.9929 441.452 23.0749C441.589 23.1568 441.697 23.2736 441.764 23.4117C441.931 23.7369 442.048 24.0826 442.11 24.4382C442.272 25.1733 442.627 25.8576 443.145 26.4306C443.661 27.0035 444.323 27.4455 445.069 27.7164C445.663 27.9347 446.219 28.2323 446.722 28.5985C447.471 29.2294 447.356 29.8772 446.472 30.2915C446.059 30.4582 445.627 30.5793 445.185 30.6515C444.351 30.7531 443.586 31.1371 443.034 31.7306C442.482 32.3249 442.18 33.0877 442.188 33.8754C442.238 34.0758 442.245 34.2835 442.209 34.4857C442.171 34.6889 442.092 34.8823 441.974 35.056C441.855 35.2289 441.701 35.3777 441.519 35.4935C441.338 35.6102 441.134 35.6904 440.919 35.7305ZM440.919 27.212L438.057 29.3907L440.765 31.3002C441.207 30.9224 441.553 30.5793 441.937 30.2737L443.148 29.3728C442.687 28.9585 442.322 28.6707 441.975 28.3285C441.63 27.9864 441.304 27.5898 440.919 27.212Z" fill="#1E1928"/>
</g>
</g>
</g>
</g>
<defs>
<clipPath id="clip0_305_1454">
<rect width="548" height="384.5" rx="20" fill="white"/>
</clipPath>
<clipPath id="clip1_305_1454">
<rect width="548" height="384.5" fill="white"/>
</clipPath>
<clipPath id="clip2_305_1454">
<rect width="548" height="384.5" fill="white"/>
</clipPath>
<clipPath id="clip3_305_1454">
<rect width="548" height="621.958" fill="white" transform="translate(0 -118.729)"/>
</clipPath>
</defs>
</svg>
