<svg xmlns="http://www.w3.org/2000/svg" xmlns:xlink="http://www.w3.org/1999/xlink" width="1472" zoomAndPan="magnify" viewBox="0 0 1104 623.999998" height="832" preserveAspectRatio="xMidYMid meet" version="1.2"><defs><clipPath id="eeff3f923d"><path d="M 112.09375 186.882812 L 349.84375 186.882812 L 349.84375 424.632812 L 112.09375 424.632812 Z M 112.09375 186.882812 "/></clipPath><clipPath id="ea0a522023"><rect x="0" width="94" y="0" height="153"/></clipPath></defs><g id="a92a7293f1"><g style="fill:#212121;fill-opacity:1;"><g transform="translate(375.94475, 299.700007)"><path style="stroke:none" d="M 50.109375 1.4375 C 40.796875 1.4375 32.320312 -0.671875 24.6875 -4.890625 C 17.0625 -9.117188 11.804688 -14.640625 8.921875 -21.453125 C 8.441406 -22.609375 8.203125 -23.570312 8.203125 -24.34375 C 8.203125 -25.78125 8.726562 -27.050781 9.78125 -28.15625 C 10.84375 -29.257812 12.285156 -30.003906 14.109375 -30.390625 C 14.398438 -30.484375 14.878906 -30.53125 15.546875 -30.53125 C 17.085938 -30.53125 18.550781 -30.070312 19.9375 -29.15625 C 21.332031 -28.25 22.367188 -27.023438 23.046875 -25.484375 C 24.765625 -21.742188 28.164062 -18.578125 33.25 -15.984375 C 38.34375 -13.390625 43.960938 -12.09375 50.109375 -12.09375 C 57.304688 -12.09375 63.398438 -13.75 68.390625 -17.0625 C 73.390625 -20.375 75.890625 -24.910156 75.890625 -30.671875 C 75.890625 -36.140625 73.773438 -40.816406 69.546875 -44.703125 C 65.328125 -48.597656 58.894531 -50.976562 50.25 -51.84375 C 38.351562 -52.988281 28.992188 -56.460938 22.171875 -62.265625 C 15.359375 -68.078125 11.953125 -75.351562 11.953125 -84.09375 C 11.953125 -90.238281 13.703125 -95.539062 17.203125 -100 C 20.710938 -104.46875 25.515625 -107.878906 31.609375 -110.234375 C 37.703125 -112.585938 44.539062 -113.765625 52.125 -113.765625 C 60.382812 -113.765625 67.34375 -112.082031 73 -108.71875 C 78.664062 -105.363281 83.46875 -100.5625 87.40625 -94.3125 C 88.5625 -92.488281 89.140625 -90.765625 89.140625 -89.140625 C 89.140625 -87.023438 88.175781 -85.296875 86.25 -83.953125 C 85.195312 -83.273438 83.953125 -82.9375 82.515625 -82.9375 C 81.078125 -82.9375 79.734375 -83.296875 78.484375 -84.015625 C 77.234375 -84.742188 76.269531 -85.726562 75.59375 -86.96875 C 73.007812 -91.289062 69.769531 -94.578125 65.875 -96.828125 C 61.988281 -99.085938 57.070312 -100.21875 51.125 -100.21875 C 43.820312 -100.21875 37.914062 -98.800781 33.40625 -95.96875 C 28.894531 -93.144531 26.640625 -89.039062 26.640625 -83.65625 C 26.640625 -78.664062 28.65625 -74.488281 32.6875 -71.125 C 36.71875 -67.769531 43.914062 -65.566406 54.28125 -64.515625 C 65.800781 -63.359375 74.726562 -59.875 81.0625 -54.0625 C 87.40625 -48.257812 90.578125 -40.609375 90.578125 -31.109375 C 90.578125 -24.191406 88.703125 -18.257812 84.953125 -13.3125 C 81.210938 -8.375 76.242188 -4.679688 70.046875 -2.234375 C 63.859375 0.210938 57.210938 1.4375 50.109375 1.4375 Z M 50.109375 1.4375 "/></g></g><g style="fill:#212121;fill-opacity:1;"><g transform="translate(475.016705, 299.700007)"><path style="stroke:none" d="M 52.5625 -79.34375 C 59.945312 -79.34375 66.6875 -77.585938 72.78125 -74.078125 C 78.882812 -70.578125 83.660156 -65.78125 87.109375 -59.6875 C 90.566406 -53.59375 92.296875 -46.800781 92.296875 -39.3125 C 92.296875 -31.820312 90.6875 -25.03125 87.46875 -18.9375 C 84.257812 -12.84375 79.847656 -8.066406 74.234375 -4.609375 C 68.617188 -1.148438 62.351562 0.578125 55.4375 0.578125 C 49.875 0.578125 44.691406 -0.570312 39.890625 -2.875 C 35.085938 -5.1875 31.003906 -8.40625 27.640625 -12.53125 L 27.640625 26.359375 C 27.640625 28.554688 26.96875 30.328125 25.625 31.671875 C 24.28125 33.023438 22.503906 33.703125 20.296875 33.703125 C 18.191406 33.703125 16.441406 33.023438 15.046875 31.671875 C 13.648438 30.328125 12.953125 28.554688 12.953125 26.359375 L 12.953125 -39.3125 C 12.953125 -46.800781 14.703125 -53.59375 18.203125 -59.6875 C 21.710938 -65.78125 26.46875 -70.578125 32.46875 -74.078125 C 38.46875 -77.585938 45.164062 -79.34375 52.5625 -79.34375 Z M 52.5625 -12.390625 C 57.363281 -12.390625 61.707031 -13.5625 65.59375 -15.90625 C 69.476562 -18.257812 72.546875 -21.476562 74.796875 -25.5625 C 77.054688 -29.644531 78.1875 -34.226562 78.1875 -39.3125 C 78.1875 -44.394531 77.054688 -49 74.796875 -53.125 C 72.546875 -57.257812 69.476562 -60.503906 65.59375 -62.859375 C 61.707031 -65.210938 57.363281 -66.390625 52.5625 -66.390625 C 47.757812 -66.390625 43.414062 -65.210938 39.53125 -62.859375 C 35.644531 -60.503906 32.597656 -57.257812 30.390625 -53.125 C 28.179688 -49 27.078125 -44.394531 27.078125 -39.3125 C 27.078125 -34.226562 28.179688 -29.644531 30.390625 -25.5625 C 32.597656 -21.476562 35.644531 -18.257812 39.53125 -15.90625 C 43.414062 -13.5625 47.757812 -12.390625 52.5625 -12.390625 Z M 52.5625 -12.390625 "/></g></g><g style="fill:#212121;fill-opacity:1;"><g transform="translate(576.248665, 299.700007)"><path style="stroke:none" d="M 48.671875 -79.34375 C 56.066406 -79.34375 62.765625 -77.585938 68.765625 -74.078125 C 74.765625 -70.578125 79.515625 -65.78125 83.015625 -59.6875 C 86.515625 -53.59375 88.265625 -46.800781 88.265625 -39.3125 L 88.265625 -7.203125 C 88.265625 -5.085938 87.566406 -3.332031 86.171875 -1.9375 C 84.785156 -0.550781 83.035156 0.140625 80.921875 0.140625 C 78.816406 0.140625 77.066406 -0.550781 75.671875 -1.9375 C 74.273438 -3.332031 73.578125 -5.085938 73.578125 -7.203125 L 73.578125 -12.53125 C 70.222656 -8.40625 66.144531 -5.1875 61.34375 -2.875 C 56.539062 -0.570312 51.359375 0.578125 45.796875 0.578125 C 38.878906 0.578125 32.613281 -1.148438 27 -4.609375 C 21.382812 -8.066406 16.96875 -12.84375 13.75 -18.9375 C 10.53125 -25.03125 8.921875 -31.820312 8.921875 -39.3125 C 8.921875 -46.800781 10.648438 -53.59375 14.109375 -59.6875 C 17.566406 -65.78125 22.34375 -70.578125 28.4375 -74.078125 C 34.53125 -77.585938 41.273438 -79.34375 48.671875 -79.34375 Z M 48.671875 -12.390625 C 53.472656 -12.390625 57.816406 -13.5625 61.703125 -15.90625 C 65.585938 -18.257812 68.632812 -21.476562 70.84375 -25.5625 C 73.050781 -29.644531 74.15625 -34.226562 74.15625 -39.3125 C 74.15625 -44.394531 73.050781 -49 70.84375 -53.125 C 68.632812 -57.257812 65.585938 -60.503906 61.703125 -62.859375 C 57.816406 -65.210938 53.472656 -66.390625 48.671875 -66.390625 C 43.867188 -66.390625 39.523438 -65.210938 35.640625 -62.859375 C 31.753906 -60.503906 28.679688 -57.257812 26.421875 -53.125 C 24.171875 -49 23.046875 -44.394531 23.046875 -39.3125 C 23.046875 -34.226562 24.171875 -29.644531 26.421875 -25.5625 C 28.679688 -21.476562 31.753906 -18.257812 35.640625 -15.90625 C 39.523438 -13.5625 43.867188 -12.390625 48.671875 -12.390625 Z M 48.671875 -12.390625 "/></g></g><g style="fill:#212121;fill-opacity:1;"><g transform="translate(673.448597, 299.700007)"><path style="stroke:none" d="M 52.125 -79.484375 C 58.75 -79.484375 64.703125 -78.039062 69.984375 -75.15625 C 75.265625 -72.28125 79.390625 -68.082031 82.359375 -62.5625 C 85.335938 -57.039062 86.828125 -50.394531 86.828125 -42.625 L 86.828125 -7.203125 C 86.828125 -5.085938 86.128906 -3.332031 84.734375 -1.9375 C 83.347656 -0.550781 81.597656 0.140625 79.484375 0.140625 C 77.367188 0.140625 75.613281 -0.550781 74.21875 -1.9375 C 72.832031 -3.332031 72.140625 -5.085938 72.140625 -7.203125 L 72.140625 -42.625 C 72.140625 -50.394531 70.050781 -56.269531 65.875 -60.25 C 61.695312 -64.238281 56.15625 -66.234375 49.25 -66.234375 C 45.21875 -66.234375 41.546875 -65.414062 38.234375 -63.78125 C 34.921875 -62.15625 32.328125 -59.945312 30.453125 -57.15625 C 28.578125 -54.375 27.640625 -51.257812 27.640625 -47.8125 L 27.640625 -7.203125 C 27.640625 -5.085938 26.96875 -3.332031 25.625 -1.9375 C 24.28125 -0.550781 22.503906 0.140625 20.296875 0.140625 C 18.191406 0.140625 16.441406 -0.550781 15.046875 -1.9375 C 13.648438 -3.332031 12.953125 -5.085938 12.953125 -7.203125 L 12.953125 -71.421875 C 12.953125 -73.628906 13.648438 -75.40625 15.046875 -76.75 C 16.441406 -78.09375 18.191406 -78.765625 20.296875 -78.765625 C 22.503906 -78.765625 24.28125 -78.09375 25.625 -76.75 C 26.96875 -75.40625 27.640625 -73.628906 27.640625 -71.421875 L 27.640625 -69.84375 C 30.710938 -72.914062 34.359375 -75.289062 38.578125 -76.96875 C 42.804688 -78.644531 47.320312 -79.484375 52.125 -79.484375 Z M 52.125 -79.484375 "/></g></g><g style="fill:#212121;fill-opacity:1;"><g transform="translate(771.65657, 299.700007)"><path style="stroke:none" d="M 21.75 0 C 19.632812 0 17.878906 -0.691406 16.484375 -2.078125 C 15.097656 -3.472656 14.40625 -5.226562 14.40625 -7.34375 L 14.40625 -71.421875 C 14.40625 -73.628906 15.097656 -75.40625 16.484375 -76.75 C 17.878906 -78.09375 19.632812 -78.765625 21.75 -78.765625 C 23.957031 -78.765625 25.734375 -78.09375 27.078125 -76.75 C 28.421875 -75.40625 29.09375 -73.628906 29.09375 -71.421875 L 29.09375 -7.34375 C 29.09375 -5.226562 28.421875 -3.472656 27.078125 -2.078125 C 25.734375 -0.691406 23.957031 0 21.75 0 Z M 21.734375 -91.578125 C 19.148438 -91.578125 16.921875 -92.515625 15.046875 -94.390625 C 13.171875 -96.265625 12.234375 -98.5 12.234375 -101.09375 C 12.234375 -103.675781 13.171875 -105.90625 15.046875 -107.78125 C 16.921875 -109.65625 19.148438 -110.59375 21.734375 -110.59375 C 24.328125 -110.59375 26.5625 -109.65625 28.4375 -107.78125 C 30.3125 -105.90625 31.25 -103.675781 31.25 -101.09375 C 31.25 -98.5 30.3125 -96.265625 28.4375 -94.390625 C 26.5625 -92.515625 24.328125 -91.578125 21.734375 -91.578125 Z M 21.734375 -91.578125 "/></g></g><g style="fill:#212121;fill-opacity:1;"><g transform="translate(815.144529, 299.700007)"><path style="stroke:none" d="M 41.609375 0.578125 C 35.085938 0.578125 28.945312 -0.425781 23.1875 -2.4375 C 17.425781 -4.457031 12.910156 -7.101562 9.640625 -10.375 C 8.398438 -11.613281 7.78125 -13.097656 7.78125 -14.828125 C 7.78125 -17.128906 8.738281 -19.003906 10.65625 -20.453125 C 12.476562 -21.796875 14.160156 -22.46875 15.703125 -22.46875 C 17.617188 -22.46875 19.441406 -21.601562 21.171875 -19.875 C 22.992188 -17.851562 25.726562 -16.097656 29.375 -14.609375 C 33.019531 -13.128906 36.910156 -12.390625 41.046875 -12.390625 C 46.515625 -12.390625 50.757812 -13.300781 53.78125 -15.125 C 56.800781 -16.945312 58.3125 -19.394531 58.3125 -22.46875 C 58.3125 -25.4375 56.820312 -27.90625 53.84375 -29.875 C 50.875 -31.84375 45.835938 -33.5 38.734375 -34.84375 C 20.304688 -38.394531 11.09375 -45.976562 11.09375 -57.59375 C 11.09375 -62.300781 12.484375 -66.285156 15.265625 -69.546875 C 18.046875 -72.816406 21.691406 -75.265625 26.203125 -76.890625 C 30.710938 -78.523438 35.515625 -79.34375 40.609375 -79.34375 C 46.847656 -79.34375 52.4375 -78.332031 57.375 -76.3125 C 62.320312 -74.300781 66.238281 -71.519531 69.125 -67.96875 C 70.363281 -66.425781 70.984375 -64.890625 70.984375 -63.359375 C 70.984375 -61.722656 70.171875 -60.234375 68.546875 -58.890625 C 67.484375 -58.128906 66.140625 -57.75 64.515625 -57.75 C 62.015625 -57.75 59.757812 -58.660156 57.75 -60.484375 C 55.34375 -62.691406 52.796875 -64.25 50.109375 -65.15625 C 47.421875 -66.070312 44.15625 -66.53125 40.3125 -66.53125 C 35.90625 -66.53125 32.285156 -65.785156 29.453125 -64.296875 C 26.617188 -62.804688 25.203125 -60.71875 25.203125 -58.03125 C 25.203125 -56.113281 25.679688 -54.503906 26.640625 -53.203125 C 27.597656 -51.910156 29.421875 -50.710938 32.109375 -49.609375 C 34.796875 -48.503906 38.6875 -47.425781 43.78125 -46.375 C 54.238281 -44.257812 61.648438 -41.328125 66.015625 -37.578125 C 70.390625 -33.835938 72.578125 -28.992188 72.578125 -23.046875 C 72.578125 -18.628906 71.375 -14.617188 68.96875 -11.015625 C 66.570312 -7.410156 63.046875 -4.578125 58.390625 -2.515625 C 53.734375 -0.453125 48.140625 0.578125 41.609375 0.578125 Z M 41.609375 0.578125 "/></g></g><g style="fill:#212121;fill-opacity:1;"><g transform="translate(893.336512, 299.700007)"><path style="stroke:none" d="M 52.125 -79.484375 C 58.75 -79.484375 64.703125 -78.039062 69.984375 -75.15625 C 75.265625 -72.28125 79.390625 -68.082031 82.359375 -62.5625 C 85.335938 -57.039062 86.828125 -50.394531 86.828125 -42.625 L 86.828125 -7.203125 C 86.828125 -5.085938 86.128906 -3.332031 84.734375 -1.9375 C 83.347656 -0.550781 81.597656 0.140625 79.484375 0.140625 C 77.367188 0.140625 75.613281 -0.550781 74.21875 -1.9375 C 72.832031 -3.332031 72.140625 -5.085938 72.140625 -7.203125 L 72.140625 -42.625 C 72.140625 -50.394531 70.050781 -56.269531 65.875 -60.25 C 61.695312 -64.238281 56.15625 -66.234375 49.25 -66.234375 C 45.21875 -66.234375 41.546875 -65.414062 38.234375 -63.78125 C 34.921875 -62.15625 32.328125 -59.945312 30.453125 -57.15625 C 28.578125 -54.375 27.640625 -51.257812 27.640625 -47.8125 L 27.640625 -7.203125 C 27.640625 -5.085938 26.96875 -3.332031 25.625 -1.9375 C 24.28125 -0.550781 22.503906 0.140625 20.296875 0.140625 C 18.191406 0.140625 16.441406 -0.550781 15.046875 -1.9375 C 13.648438 -3.332031 12.953125 -5.085938 12.953125 -7.203125 L 12.953125 -105.125 C 12.953125 -107.332031 13.648438 -109.109375 15.046875 -110.453125 C 16.441406 -111.796875 18.191406 -112.46875 20.296875 -112.46875 C 22.503906 -112.46875 24.28125 -111.796875 25.625 -110.453125 C 26.96875 -109.109375 27.640625 -107.332031 27.640625 -105.125 L 27.640625 -69.84375 C 30.710938 -72.914062 34.359375 -75.289062 38.578125 -76.96875 C 42.804688 -78.644531 47.320312 -79.484375 52.125 -79.484375 Z M 52.125 -79.484375 "/></g></g><g style="fill:#212121;fill-opacity:1;"><g transform="translate(375.94475, 423.450001)"><path style="stroke:none" d="M 82.6875 -65.640625 C 83.957031 -65.640625 84.953125 -65.28125 85.671875 -64.5625 C 86.398438 -63.84375 86.765625 -62.882812 86.765625 -61.6875 C 86.765625 -60.71875 86.601562 -59.875 86.28125 -59.15625 L 67.5625 -3 C 67.238281 -2.125 66.695312 -1.40625 65.9375 -0.84375 C 65.175781 -0.28125 64.273438 0 63.234375 0 C 62.203125 0 61.265625 -0.28125 60.421875 -0.84375 C 59.578125 -1.40625 59.035156 -2.125 58.796875 -3 L 44.40625 -50.765625 L 30 -3 C 29.675781 -2.039062 29.113281 -1.300781 28.3125 -0.78125 C 27.519531 -0.257812 26.644531 0 25.6875 0 C 24.644531 0 23.742188 -0.28125 22.984375 -0.84375 C 22.222656 -1.40625 21.640625 -2.125 21.234375 -3 L 2.515625 -59.15625 C 2.273438 -60.113281 2.15625 -60.957031 2.15625 -61.6875 C 2.15625 -64.320312 3.4375 -65.640625 6 -65.640625 C 8.238281 -65.640625 9.757812 -64.476562 10.5625 -62.15625 L 25.921875 -15.359375 L 40.078125 -62.046875 C 40.398438 -63.160156 40.941406 -64.035156 41.703125 -64.671875 C 42.460938 -65.316406 43.441406 -65.640625 44.640625 -65.640625 C 45.835938 -65.640625 46.816406 -65.316406 47.578125 -64.671875 C 48.335938 -64.035156 48.878906 -63.160156 49.203125 -62.046875 L 63 -15.59375 L 78.234375 -62.15625 C 79.035156 -64.476562 80.519531 -65.640625 82.6875 -65.640625 Z M 82.6875 -65.640625 "/></g></g><g style="fill:#212121;fill-opacity:1;"><g transform="translate(475.42479, 423.450001)"><path style="stroke:none" d="M 17.40625 0 C 16.039062 0 14.914062 -0.4375 14.03125 -1.3125 C 13.15625 -2.195312 12.71875 -3.320312 12.71875 -4.6875 L 12.71875 -60.953125 C 12.71875 -62.316406 13.15625 -63.4375 14.03125 -64.3125 C 14.914062 -65.195312 16.039062 -65.640625 17.40625 -65.640625 C 18.757812 -65.640625 19.851562 -65.195312 20.6875 -64.3125 C 21.53125 -63.4375 21.953125 -62.316406 21.953125 -60.953125 L 21.953125 -4.6875 C 21.953125 -3.320312 21.53125 -2.195312 20.6875 -1.3125 C 19.851562 -0.4375 18.757812 0 17.40625 0 Z M 17.28125 -78.125 C 15.4375 -78.125 13.894531 -78.757812 12.65625 -80.03125 C 11.414062 -81.3125 10.796875 -82.875 10.796875 -84.71875 C 10.796875 -86.632812 11.4375 -88.191406 12.71875 -89.390625 C 14 -90.597656 15.554688 -91.203125 17.390625 -91.203125 C 19.148438 -91.203125 20.671875 -90.597656 21.953125 -89.390625 C 23.234375 -88.191406 23.875 -86.632812 23.875 -84.71875 C 23.875 -82.875 23.234375 -81.3125 21.953125 -80.03125 C 20.671875 -78.757812 19.113281 -78.125 17.28125 -78.125 Z M 17.28125 -78.125 "/></g></g><g style="fill:#212121;fill-opacity:1;"><g transform="translate(520.784796, 423.450001)"><path style="stroke:none" d="M 39.71875 -9.234375 C 41 -9.234375 42.039062 -8.789062 42.84375 -7.90625 C 43.644531 -7.03125 44.046875 -5.914062 44.046875 -4.5625 C 44.046875 -3.28125 43.5625 -2.195312 42.59375 -1.3125 C 41.632812 -0.4375 40.4375 0 39 0 L 36.484375 0 C 32.242188 0 28.441406 -1.019531 25.078125 -3.0625 C 21.722656 -5.101562 19.101562 -7.863281 17.21875 -11.34375 C 15.34375 -14.820312 14.40625 -18.757812 14.40625 -23.15625 L 14.40625 -55.203125 L 6.59375 -55.203125 C 5.320312 -55.203125 4.304688 -55.582031 3.546875 -56.34375 C 2.785156 -57.101562 2.40625 -58.039062 2.40625 -59.15625 C 2.40625 -60.351562 2.785156 -61.332031 3.546875 -62.09375 C 4.304688 -62.851562 5.320312 -63.234375 6.59375 -63.234375 L 14.40625 -63.234375 L 14.40625 -81.84375 C 14.40625 -83.195312 14.820312 -84.3125 15.65625 -85.1875 C 16.5 -86.070312 17.597656 -86.515625 18.953125 -86.515625 C 20.316406 -86.515625 21.4375 -86.070312 22.3125 -85.1875 C 23.195312 -84.3125 23.640625 -83.195312 23.640625 -81.84375 L 23.640625 -63.234375 L 37.203125 -63.234375 C 38.484375 -63.234375 39.503906 -62.851562 40.265625 -62.09375 C 41.023438 -61.332031 41.40625 -60.351562 41.40625 -59.15625 C 41.40625 -58.039062 41.023438 -57.101562 40.265625 -56.34375 C 39.503906 -55.582031 38.484375 -55.203125 37.203125 -55.203125 L 23.640625 -55.203125 L 23.640625 -23.15625 C 23.640625 -19.082031 24.835938 -15.742188 27.234375 -13.140625 C 29.640625 -10.535156 32.722656 -9.234375 36.484375 -9.234375 Z M 39.71875 -9.234375 "/></g></g><g style="fill:#212121;fill-opacity:1;"><g transform="translate(579.704826, 423.450001)"><path style="stroke:none" d="M 41.875 -66.359375 C 47.5625 -66.359375 52.660156 -65.15625 57.171875 -62.75 C 61.691406 -60.351562 65.234375 -56.851562 67.796875 -52.25 C 70.359375 -47.65625 71.640625 -42.160156 71.640625 -35.765625 L 71.640625 -4.5625 C 71.640625 -3.28125 71.195312 -2.195312 70.3125 -1.3125 C 69.4375 -0.4375 68.359375 0 67.078125 0 C 65.722656 0 64.601562 -0.4375 63.71875 -1.3125 C 62.84375 -2.195312 62.40625 -3.28125 62.40625 -4.5625 L 62.40625 -35.765625 C 62.40625 -42.878906 60.421875 -48.296875 56.453125 -52.015625 C 52.492188 -55.734375 47.316406 -57.59375 40.921875 -57.59375 C 37.003906 -57.59375 33.460938 -56.832031 30.296875 -55.3125 C 27.140625 -53.800781 24.640625 -51.703125 22.796875 -49.015625 C 20.960938 -46.335938 20.046875 -43.359375 20.046875 -40.078125 L 20.046875 -4.5625 C 20.046875 -3.195312 19.625 -2.09375 18.78125 -1.25 C 17.9375 -0.414062 16.835938 0 15.484375 0 C 14.117188 0 12.992188 -0.414062 12.109375 -1.25 C 11.234375 -2.09375 10.796875 -3.195312 10.796875 -4.5625 L 10.796875 -89.046875 C 10.796875 -90.398438 11.234375 -91.515625 12.109375 -92.390625 C 12.992188 -93.273438 14.117188 -93.71875 15.484375 -93.71875 C 16.835938 -93.71875 17.9375 -93.273438 18.78125 -92.390625 C 19.625 -91.515625 20.046875 -90.398438 20.046875 -89.046875 L 20.046875 -56.875 C 22.679688 -59.832031 25.878906 -62.148438 29.640625 -63.828125 C 33.398438 -65.515625 37.476562 -66.359375 41.875 -66.359375 Z M 41.875 -66.359375 "/></g></g><g style="fill:#212121;fill-opacity:1;"><g transform="translate(671.624843, 423.450001)"><path style="stroke:none" d=""/></g></g><g style="fill:#212121;fill-opacity:1;"><g transform="translate(717.464861, 423.450001)"><path style="stroke:none" d="M 40.796875 1.203125 C 33.203125 1.203125 26.460938 -0.414062 20.578125 -3.65625 C 14.703125 -6.894531 10.484375 -11.273438 7.921875 -16.796875 C 7.597656 -17.359375 7.4375 -18 7.4375 -18.71875 C 7.4375 -19.84375 7.851562 -20.785156 8.6875 -21.546875 C 9.53125 -22.304688 10.675781 -22.6875 12.125 -22.6875 C 13.082031 -22.6875 13.976562 -22.425781 14.8125 -21.90625 C 15.65625 -21.382812 16.28125 -20.644531 16.6875 -19.6875 C 18.519531 -16.082031 21.578125 -13.179688 25.859375 -10.984375 C 30.140625 -8.785156 35.117188 -7.6875 40.796875 -7.6875 C 47.359375 -7.6875 52.640625 -9.265625 56.640625 -12.421875 C 60.640625 -15.578125 62.640625 -20 62.640625 -25.6875 C 62.640625 -30.71875 60.78125 -34.953125 57.0625 -38.390625 C 53.34375 -41.835938 47.757812 -44.039062 40.3125 -45 C 31.039062 -46.125 23.742188 -49.023438 18.421875 -53.703125 C 13.097656 -58.378906 10.4375 -64.117188 10.4375 -70.921875 C 10.4375 -75.722656 11.734375 -79.941406 14.328125 -83.578125 C 16.929688 -87.222656 20.535156 -90.023438 25.140625 -91.984375 C 29.742188 -93.941406 34.960938 -94.921875 40.796875 -94.921875 C 47.117188 -94.921875 52.679688 -93.519531 57.484375 -90.71875 C 62.285156 -87.914062 66.046875 -84.273438 68.765625 -79.796875 C 69.316406 -78.921875 69.59375 -77.960938 69.59375 -76.921875 C 69.59375 -75.398438 68.875 -74.195312 67.4375 -73.3125 C 66.800781 -73 66.082031 -72.84375 65.28125 -72.84375 C 64.394531 -72.84375 63.570312 -73.0625 62.8125 -73.5 C 62.0625 -73.9375 61.441406 -74.554688 60.953125 -75.359375 C 56.472656 -82.398438 49.71875 -85.960938 40.6875 -86.046875 C 34.195312 -86.046875 29.070312 -84.679688 25.3125 -81.953125 C 21.5625 -79.234375 19.6875 -75.351562 19.6875 -70.3125 C 19.6875 -60.957031 27.242188 -55.28125 42.359375 -53.28125 C 52.273438 -51.84375 59.671875 -48.800781 64.546875 -44.15625 C 69.429688 -39.519531 71.875 -33.398438 71.875 -25.796875 C 71.875 -20.203125 70.515625 -15.363281 67.796875 -11.28125 C 65.078125 -7.195312 61.359375 -4.09375 56.640625 -1.96875 C 51.921875 0.144531 46.640625 1.203125 40.796875 1.203125 Z M 40.796875 1.203125 "/></g></g><g style="fill:#212121;fill-opacity:1;"><g transform="translate(807.584882, 423.450001)"><path style="stroke:none" d="M 38.765625 -66.234375 C 44.679688 -66.234375 49.914062 -64.851562 54.46875 -62.09375 C 59.03125 -59.332031 62.570312 -55.507812 65.09375 -50.625 C 67.613281 -45.75 68.875 -40.191406 68.875 -33.953125 C 68.875 -32.679688 68.472656 -31.664062 67.671875 -30.90625 C 66.878906 -30.144531 65.84375 -29.765625 64.5625 -29.765625 L 16.078125 -29.765625 C 16.722656 -23.203125 19.285156 -17.878906 23.765625 -13.796875 C 28.242188 -9.722656 33.84375 -7.6875 40.5625 -7.6875 C 43.4375 -7.6875 46.332031 -8.1875 49.25 -9.1875 C 52.175781 -10.1875 54.519531 -11.441406 56.28125 -12.953125 C 57.320312 -13.753906 58.398438 -14.15625 59.515625 -14.15625 C 60.398438 -14.15625 61.28125 -13.835938 62.15625 -13.203125 C 63.195312 -12.242188 63.71875 -11.160156 63.71875 -9.953125 C 63.71875 -8.921875 63.28125 -8.003906 62.40625 -7.203125 C 59.757812 -4.960938 56.394531 -3.101562 52.3125 -1.625 C 48.238281 -0.144531 44.320312 0.59375 40.5625 0.59375 C 34.15625 0.59375 28.429688 -0.820312 23.390625 -3.65625 C 18.359375 -6.5 14.421875 -10.457031 11.578125 -15.53125 C 8.734375 -20.613281 7.3125 -26.359375 7.3125 -32.765625 C 7.3125 -39.242188 8.648438 -45.019531 11.328125 -50.09375 C 14.015625 -55.175781 17.738281 -59.132812 22.5 -61.96875 C 27.257812 -64.8125 32.679688 -66.234375 38.765625 -66.234375 Z M 38.765625 -57.953125 C 32.679688 -57.953125 27.640625 -56.070312 23.640625 -52.3125 C 19.640625 -48.5625 17.195312 -43.601562 16.3125 -37.4375 L 60.234375 -37.4375 C 59.597656 -43.601562 57.359375 -48.5625 53.515625 -52.3125 C 49.679688 -56.070312 44.765625 -57.953125 38.765625 -57.953125 Z M 38.765625 -57.953125 "/></g></g><g style="fill:#212121;fill-opacity:1;"><g transform="translate(891.94491, 423.450001)"><path style="stroke:none" d="M 17.40625 0 C 16.039062 0 14.914062 -0.4375 14.03125 -1.3125 C 13.15625 -2.195312 12.71875 -3.320312 12.71875 -4.6875 L 12.71875 -60.953125 C 12.71875 -62.316406 13.15625 -63.4375 14.03125 -64.3125 C 14.914062 -65.195312 16.039062 -65.640625 17.40625 -65.640625 C 18.757812 -65.640625 19.851562 -65.195312 20.6875 -64.3125 C 21.53125 -63.4375 21.953125 -62.316406 21.953125 -60.953125 L 21.953125 -4.6875 C 21.953125 -3.320312 21.53125 -2.195312 20.6875 -1.3125 C 19.851562 -0.4375 18.757812 0 17.40625 0 Z M 17.28125 -78.125 C 15.4375 -78.125 13.894531 -78.757812 12.65625 -80.03125 C 11.414062 -81.3125 10.796875 -82.875 10.796875 -84.71875 C 10.796875 -86.632812 11.4375 -88.191406 12.71875 -89.390625 C 14 -90.597656 15.554688 -91.203125 17.390625 -91.203125 C 19.148438 -91.203125 20.671875 -90.597656 21.953125 -89.390625 C 23.234375 -88.191406 23.875 -86.632812 23.875 -84.71875 C 23.875 -82.875 23.234375 -81.3125 21.953125 -80.03125 C 20.671875 -78.757812 19.113281 -78.125 17.28125 -78.125 Z M 17.28125 -78.125 "/></g></g><g style="fill:#212121;fill-opacity:1;"><g transform="translate(937.304893, 423.450001)"><path style="stroke:none" d="M 39.71875 -85.3125 C 34.4375 -85.3125 30.457031 -83.550781 27.78125 -80.03125 C 25.101562 -76.519531 23.765625 -71.84375 23.765625 -66 L 23.765625 -63.234375 L 38.15625 -63.234375 C 39.4375 -63.234375 40.457031 -62.851562 41.21875 -62.09375 C 41.976562 -61.332031 42.359375 -60.351562 42.359375 -59.15625 C 42.359375 -58.039062 41.976562 -57.101562 41.21875 -56.34375 C 40.457031 -55.582031 39.4375 -55.203125 38.15625 -55.203125 L 23.765625 -55.203125 L 23.765625 -4.6875 C 23.765625 -3.238281 23.34375 -2.09375 22.5 -1.25 C 21.65625 -0.414062 20.472656 0 18.953125 0 C 17.679688 0 16.625 -0.414062 15.78125 -1.25 C 14.9375 -2.09375 14.515625 -3.238281 14.515625 -4.6875 L 14.515625 -55.203125 L 6.84375 -55.203125 C 5.5625 -55.203125 4.539062 -55.582031 3.78125 -56.34375 C 3.019531 -57.101562 2.640625 -58.039062 2.640625 -59.15625 C 2.640625 -60.351562 3.019531 -61.332031 3.78125 -62.09375 C 4.539062 -62.851562 5.5625 -63.234375 6.84375 -63.234375 L 14.515625 -63.234375 L 14.515625 -65.515625 C 14.515625 -74.078125 16.710938 -80.914062 21.109375 -86.03125 C 25.515625 -91.15625 31.71875 -93.71875 39.71875 -93.71875 C 41.082031 -93.71875 42.203125 -93.316406 43.078125 -92.515625 C 43.960938 -91.710938 44.40625 -90.710938 44.40625 -89.515625 C 44.40625 -88.316406 43.960938 -87.316406 43.078125 -86.515625 C 42.203125 -85.710938 41.082031 -85.3125 39.71875 -85.3125 Z M 39.71875 -85.3125 "/></g></g><g clip-rule="nonzero" clip-path="url(#eeff3f923d)"><path style=" stroke:none;fill-rule:nonzero;fill:#e05753;fill-opacity:1;" d="M 349.527344 305.597656 C 349.527344 307.539062 349.480469 309.484375 349.386719 311.421875 C 349.289062 313.363281 349.148438 315.300781 348.957031 317.234375 C 348.765625 319.167969 348.527344 321.09375 348.242188 323.015625 C 347.957031 324.9375 347.625 326.851562 347.246094 328.757812 C 346.867188 330.664062 346.441406 332.558594 345.96875 334.445312 C 345.496094 336.328125 344.980469 338.199219 344.414062 340.058594 C 343.851562 341.917969 343.242188 343.761719 342.589844 345.59375 C 341.933594 347.421875 341.234375 349.234375 340.492188 351.027344 C 339.746094 352.824219 338.960938 354.601562 338.128906 356.355469 C 337.300781 358.113281 336.425781 359.847656 335.511719 361.5625 C 334.59375 363.273438 333.636719 364.964844 332.636719 366.628906 C 331.640625 368.296875 330.601562 369.9375 329.519531 371.554688 C 328.441406 373.167969 327.324219 374.757812 326.164062 376.316406 C 325.007812 377.878906 323.8125 379.410156 322.582031 380.910156 C 321.347656 382.414062 320.078125 383.882812 318.773438 385.324219 C 317.46875 386.761719 316.128906 388.167969 314.757812 389.542969 C 313.382812 390.917969 311.976562 392.257812 310.535156 393.5625 C 309.097656 394.867188 307.625 396.136719 306.125 397.367188 C 304.621094 398.601562 303.089844 399.792969 301.53125 400.953125 C 299.96875 402.109375 298.382812 403.226562 296.765625 404.308594 C 295.152344 405.386719 293.511719 406.425781 291.84375 407.425781 C 290.175781 408.421875 288.488281 409.382812 286.773438 410.296875 C 285.058594 411.210938 283.324219 412.085938 281.570312 412.917969 C 279.8125 413.746094 278.035156 414.535156 276.242188 415.277344 C 274.445312 416.023438 272.632812 416.71875 270.804688 417.375 C 268.976562 418.03125 267.132812 418.640625 265.273438 419.203125 C 263.414062 419.765625 261.542969 420.285156 259.65625 420.757812 C 257.773438 421.230469 255.878906 421.65625 253.972656 422.035156 C 252.066406 422.414062 250.152344 422.746094 248.230469 423.03125 C 246.308594 423.316406 244.382812 423.554688 242.449219 423.742188 C 240.515625 423.933594 238.578125 424.078125 236.636719 424.171875 C 234.695312 424.265625 232.753906 424.316406 230.8125 424.316406 C 228.867188 424.316406 226.925781 424.265625 224.984375 424.171875 C 223.046875 424.078125 221.109375 423.933594 219.175781 423.742188 C 217.242188 423.554688 215.3125 423.316406 213.390625 423.03125 C 211.46875 422.746094 209.554688 422.414062 207.652344 422.035156 C 205.746094 421.65625 203.851562 421.230469 201.964844 420.757812 C 200.082031 420.285156 198.207031 419.765625 196.347656 419.203125 C 194.488281 418.640625 192.644531 418.03125 190.816406 417.375 C 188.988281 416.71875 187.175781 416.023438 185.378906 415.277344 C 183.585938 414.535156 181.808594 413.746094 180.054688 412.917969 C 178.296875 412.085938 176.5625 411.210938 174.847656 410.296875 C 173.136719 409.382812 171.445312 408.421875 169.777344 407.425781 C 168.113281 406.425781 166.472656 405.386719 164.855469 404.308594 C 163.238281 403.226562 161.652344 402.109375 160.089844 400.953125 C 158.53125 399.792969 157 398.601562 155.496094 397.367188 C 153.996094 396.136719 152.527344 394.867188 151.085938 393.5625 C 149.644531 392.257812 148.238281 390.917969 146.867188 389.542969 C 145.492188 388.167969 144.152344 386.761719 142.847656 385.324219 C 141.542969 383.882812 140.273438 382.414062 139.042969 380.910156 C 137.808594 379.410156 136.613281 377.878906 135.457031 376.316406 C 134.300781 374.757812 133.179688 373.167969 132.101562 371.554688 C 131.023438 369.9375 129.984375 368.296875 128.984375 366.628906 C 127.984375 364.964844 127.027344 363.273438 126.113281 361.5625 C 125.195312 359.847656 124.324219 358.113281 123.492188 356.355469 C 122.660156 354.601562 121.875 352.824219 121.132812 351.027344 C 120.386719 349.234375 119.6875 347.421875 119.035156 345.59375 C 118.378906 343.761719 117.769531 341.917969 117.207031 340.058594 C 116.640625 338.199219 116.125 336.328125 115.652344 334.445312 C 115.179688 332.558594 114.753906 330.664062 114.375 328.757812 C 113.996094 326.851562 113.664062 324.9375 113.378906 323.015625 C 113.09375 321.09375 112.855469 319.167969 112.664062 317.234375 C 112.476562 315.300781 112.332031 313.363281 112.238281 311.421875 C 112.140625 309.484375 112.09375 307.539062 112.09375 305.597656 C 112.09375 303.65625 112.140625 301.714844 112.238281 299.773438 C 112.332031 297.832031 112.476562 295.894531 112.664062 293.960938 C 112.855469 292.027344 113.09375 290.101562 113.378906 288.179688 C 113.664062 286.257812 113.996094 284.34375 114.375 282.4375 C 114.753906 280.53125 115.179688 278.636719 115.652344 276.753906 C 116.125 274.867188 116.640625 272.996094 117.207031 271.136719 C 117.769531 269.277344 118.378906 267.433594 119.035156 265.605469 C 119.6875 263.773438 120.386719 261.960938 121.132812 260.167969 C 121.875 258.371094 122.660156 256.597656 123.492188 254.839844 C 124.324219 253.082031 125.195312 251.347656 126.113281 249.636719 C 127.027344 247.921875 127.984375 246.230469 128.984375 244.566406 C 129.984375 242.898438 131.023438 241.257812 132.101562 239.640625 C 133.179688 238.027344 134.300781 236.4375 135.457031 234.878906 C 136.613281 233.316406 137.808594 231.785156 139.042969 230.285156 C 140.273438 228.78125 141.542969 227.3125 142.847656 225.871094 C 144.152344 224.433594 145.492188 223.027344 146.867188 221.652344 C 148.238281 220.277344 149.644531 218.941406 151.085938 217.632812 C 152.527344 216.328125 153.996094 215.0625 155.496094 213.828125 C 157 212.597656 158.53125 211.402344 160.089844 210.242188 C 161.652344 209.085938 163.238281 207.96875 164.855469 206.886719 C 166.472656 205.808594 168.113281 204.769531 169.777344 203.769531 C 171.445312 202.773438 173.136719 201.816406 174.847656 200.898438 C 176.5625 199.984375 178.296875 199.109375 180.054688 198.28125 C 181.808594 197.449219 183.585938 196.660156 185.378906 195.917969 C 187.175781 195.175781 188.988281 194.476562 190.816406 193.820312 C 192.644531 193.167969 194.488281 192.558594 196.347656 191.992188 C 198.207031 191.429688 200.082031 190.910156 201.964844 190.4375 C 203.851562 189.96875 205.746094 189.542969 207.652344 189.164062 C 209.554688 188.785156 211.46875 188.453125 213.390625 188.167969 C 215.3125 187.882812 217.242188 187.644531 219.175781 187.453125 C 221.109375 187.261719 223.046875 187.121094 224.984375 187.023438 C 226.925781 186.929688 228.867188 186.882812 230.8125 186.882812 C 232.753906 186.882812 234.695312 186.929688 236.636719 187.023438 C 238.578125 187.121094 240.515625 187.261719 242.449219 187.453125 C 244.382812 187.644531 246.308594 187.882812 248.230469 188.167969 C 250.152344 188.453125 252.066406 188.785156 253.972656 189.164062 C 255.878906 189.542969 257.773438 189.96875 259.65625 190.4375 C 261.542969 190.910156 263.414062 191.429688 265.273438 191.992188 C 267.132812 192.558594 268.976562 193.167969 270.804688 193.820312 C 272.632812 194.476562 274.445312 195.175781 276.242188 195.917969 C 278.035156 196.660156 279.8125 197.449219 281.570312 198.28125 C 283.324219 199.109375 285.058594 199.984375 286.773438 200.898438 C 288.488281 201.816406 290.175781 202.773438 291.84375 203.769531 C 293.511719 204.769531 295.152344 205.808594 296.765625 206.886719 C 298.382812 207.96875 299.96875 209.085938 301.53125 210.242188 C 303.089844 211.402344 304.621094 212.597656 306.125 213.828125 C 307.625 215.0625 309.097656 216.328125 310.535156 217.632812 C 311.976562 218.941406 313.382812 220.277344 314.757812 221.652344 C 316.128906 223.027344 317.46875 224.433594 318.773438 225.871094 C 320.078125 227.3125 321.347656 228.78125 322.582031 230.285156 C 323.8125 231.785156 325.007812 233.316406 326.164062 234.878906 C 327.324219 236.4375 328.441406 238.027344 329.519531 239.640625 C 330.601562 241.257812 331.640625 242.898438 332.636719 244.566406 C 333.636719 246.230469 334.59375 247.921875 335.511719 249.636719 C 336.425781 251.347656 337.300781 253.082031 338.128906 254.839844 C 338.960938 256.597656 339.746094 258.371094 340.492188 260.167969 C 341.234375 261.960938 341.933594 263.773438 342.589844 265.605469 C 343.242188 267.433594 343.851562 269.277344 344.414062 271.136719 C 344.980469 272.996094 345.496094 274.867188 345.96875 276.753906 C 346.441406 278.636719 346.867188 280.53125 347.246094 282.4375 C 347.625 284.34375 347.957031 286.257812 348.242188 288.179688 C 348.527344 290.101562 348.765625 292.027344 348.957031 293.960938 C 349.148438 295.894531 349.289062 297.832031 349.386719 299.773438 C 349.480469 301.714844 349.527344 303.65625 349.527344 305.597656 Z M 349.527344 305.597656 "/></g><g transform="matrix(1,0,0,1,184,233)"><g clip-path="url(#ea0a522023)"><g style="fill:#ffffff;fill-opacity:1;"><g transform="translate(0.421492, 120.246837)"><path style="stroke:none" d="M 49.25 -75.09375 C 55.507812 -75.09375 61.128906 -73.734375 66.109375 -71.015625 C 71.097656 -68.296875 75 -64.328125 77.8125 -59.109375 C 80.625 -53.898438 82.03125 -47.617188 82.03125 -40.265625 L 82.03125 -6.796875 C 82.03125 -4.804688 81.375 -3.148438 80.0625 -1.828125 C 78.75 -0.515625 77.09375 0.140625 75.09375 0.140625 C 73.101562 0.140625 71.445312 -0.515625 70.125 -1.828125 C 68.8125 -3.148438 68.15625 -4.804688 68.15625 -6.796875 L 68.15625 -40.265625 C 68.15625 -47.617188 66.179688 -53.175781 62.234375 -56.9375 C 58.296875 -60.695312 53.0625 -62.578125 46.53125 -62.578125 C 42.71875 -62.578125 39.242188 -61.804688 36.109375 -60.265625 C 32.984375 -58.722656 30.535156 -56.632812 28.765625 -54 C 27.003906 -51.375 26.125 -48.429688 26.125 -45.171875 L 26.125 -6.796875 C 26.125 -4.804688 25.488281 -3.148438 24.21875 -1.828125 C 22.945312 -0.515625 21.269531 0.140625 19.1875 0.140625 C 17.1875 0.140625 15.53125 -0.515625 14.21875 -1.828125 C 12.90625 -3.148438 12.25 -4.804688 12.25 -6.796875 L 12.25 -67.484375 C 12.25 -69.566406 12.90625 -71.242188 14.21875 -72.515625 C 15.53125 -73.785156 17.1875 -74.421875 19.1875 -74.421875 C 21.269531 -74.421875 22.945312 -73.785156 24.21875 -72.515625 C 25.488281 -71.242188 26.125 -69.566406 26.125 -67.484375 L 26.125 -65.984375 C 29.019531 -68.890625 32.460938 -71.132812 36.453125 -72.71875 C 40.453125 -74.300781 44.71875 -75.09375 49.25 -75.09375 Z M 60.953125 -84.625 C 58.234375 -84.625 55.828125 -85.007812 53.734375 -85.78125 C 51.648438 -86.550781 49.429688 -87.570312 47.078125 -88.84375 C 43.265625 -90.925781 40.269531 -91.96875 38.09375 -91.96875 C 36.738281 -91.96875 35.5625 -91.71875 34.5625 -91.21875 C 33.5625 -90.71875 32.5625 -89.742188 31.5625 -88.296875 C 29.75 -85.847656 27.710938 -84.625 25.453125 -84.625 C 24.722656 -84.625 23.8125 -84.847656 22.71875 -85.296875 C 22 -85.660156 21.410156 -86.25 20.953125 -87.0625 C 20.503906 -87.882812 20.28125 -88.796875 20.28125 -89.796875 C 20.28125 -91.148438 20.6875 -92.414062 21.5 -93.59375 C 23.582031 -96.59375 26.144531 -98.882812 29.1875 -100.46875 C 32.226562 -102.050781 35.515625 -102.84375 39.046875 -102.84375 C 41.585938 -102.84375 43.832031 -102.476562 45.78125 -101.75 C 47.738281 -101.03125 49.941406 -100.035156 52.390625 -98.765625 C 54.566406 -97.492188 56.175781 -96.65625 57.21875 -96.25 C 58.257812 -95.84375 59.367188 -95.640625 60.546875 -95.640625 C 62.628906 -95.640625 64.441406 -96.410156 65.984375 -97.953125 C 66.984375 -98.953125 67.84375 -99.675781 68.5625 -100.125 C 69.289062 -100.582031 70.109375 -100.8125 71.015625 -100.8125 C 72.015625 -100.8125 73.015625 -100.492188 74.015625 -99.859375 C 75.460938 -98.953125 76.1875 -97.457031 76.1875 -95.375 C 76.1875 -93.738281 75.691406 -92.285156 74.703125 -91.015625 C 71.253906 -86.753906 66.671875 -84.625 60.953125 -84.625 Z M 60.953125 -84.625 "/></g></g></g></g></g></svg>